<svg version="1.1" xmlns="http://www.w3.org/2000/svg" viewBox="0 0 1971.8992411295574 1032.7138462295986" width="1971.8992411295574" height="1032.7138462295986" filter="invert(93%) hue-rotate(180deg)">
  <!-- svg-source:excalidraw -->
  
  <defs>
    <style>
      @font-face {
        font-family: "Virgil";
        src: url("https://excalidraw.com/Virgil.woff2");
      }
      @font-face {
        font-family: "Cascadia";
        src: url("https://excalidraw.com/Cascadia.woff2");
      }
    </style>
  </defs>
  <rect x="0" y="0" width="1971.8992411295574" height="1032.7138462295986" fill="#ffffff"></rect><g stroke-linecap="round" transform="translate(35.67296600341797 886.0167522659756) rotate(0 81 50.5)"><path d="M0 0 C0 0, 0 0, 0 0 M0 0 C0 0, 0 0, 0 0 M-0.4 6.77 C2.04 4.68, 3.66 1.82, 5.57 -0.11 M-0.15 6.5 C1.5 4.85, 2.59 2.89, 4.81 0.06 M-0.62 13.54 C2.16 8.38, 7.72 5.43, 9.54 -1.63 M-0.49 12.59 C2.7 8.98, 5.64 6.49, 10.11 0.31 M-1.85 19.25 C1.66 13.48, 8.92 11.66, 14.78 -0.71 M0.04 18.21 C4.5 12.97, 8.68 8.75, 16.13 -0.2 M1.12 23.85 C2.91 18.39, 9.75 15.8, 20.78 1.76 M1.09 23.31 C8.52 14.55, 17.59 4.75, 22.06 0.49 M1.77 30.84 C7.17 18.05, 18.09 11.36, 27.88 0.54 M-0.26 30.97 C6.66 24.31, 12 16.37, 26.02 0.89 M1.2 38.62 C8.24 29.9, 13.88 20.17, 30.77 -0.64 M-1.06 36.59 C8.75 26.78, 15.84 17.94, 31.65 0.1 M-0.07 41.17 C8.01 33.53, 18.55 21.91, 34.92 -1.49 M0.43 43.27 C10.64 29, 22.51 16.86, 37.75 0.98 M-2.05 48.29 C7.7 37.95, 17.68 26.81, 43.9 -1.16 M-0.24 49.13 C15.62 31.31, 29 15.5, 42.53 -0.94 M1.3 54.32 C11.93 41.82, 18.26 32.15, 48.06 1.77 M-0.12 54.95 C13.47 41.84, 25.44 28.08, 47.36 -0.36 M-1.15 62.19 C15.23 44.72, 29 27.45, 51.85 1.28 M0.92 61.28 C11.19 48.89, 21.94 36.09, 53 0.69 M0.88 68.13 C16.76 45.81, 37.47 25.34, 58.48 -0.09 M-0.27 68.1 C19.91 42.86, 40.55 21.23, 57.39 -0.04 M-0.9 73.91 C17.53 49.53, 38.09 30.31, 65.28 0.76 M0.96 72.12 C17.68 51.85, 35.25 32.39, 63.85 -0.15 M-1.32 79.16 C24.65 49.52, 48.63 25.06, 68.35 -0.5 M0.08 80.03 C14.2 63.08, 29.86 44.69, 68.87 0.53 M0.86 86.02 C21.28 62.86, 39.91 37.93, 73.87 0.36 M0.94 84.24 C29.83 51.6, 59.11 17.47, 74.36 -1.14 M-0.3 91.24 C22.92 65.91, 47.23 36.45, 78.84 0.13 M-0.44 91.86 C19.7 67.9, 39.17 45.88, 79.35 -0.57 M0.65 98.85 C21.63 72.23, 41.39 49.85, 86.3 0.15 M-0.28 98.48 C23.53 70.95, 46.78 43.71, 84.32 -0.45 M1.92 102.94 C17.54 80.05, 35.67 59.84, 90.12 -1.64 M1.28 101.89 C33.65 63.45, 67.13 25.72, 90.87 0.26 M6.5 103.93 C31.04 75.07, 58.4 43.36, 94.23 1.22 M7.22 101.37 C30.26 74.66, 54.97 47.54, 96.02 -0.73 M12.89 102.3 C49.38 62.11, 83.04 21.3, 101.37 -0.22 M11.39 102.42 C36.96 74.45, 60.82 45.32, 99.96 0.08 M18.33 102.6 C46.51 70.33, 73.4 36.71, 104.34 1.64 M16.7 101.77 C36.22 82.15, 52.58 61.18, 106.26 -1.14 M22.11 101.94 C39.79 80.26, 58.65 61.28, 110.75 -1.03 M23.5 102.84 C58.51 61.33, 92.55 19.62, 111.66 -0.49 M26.35 101.98 C55.84 71.37, 83.56 38.06, 117.63 1.24 M27.27 102.79 C54.52 71.96, 83 41.98, 115.66 -0.61 M35.23 100.94 C56.89 75.09, 78.59 48.32, 123.44 -0.5 M32.9 101.48 C60.96 68.91, 88.81 37.12, 121.52 0.6 M39.74 101.64 C66.36 68.7, 93.69 35.95, 128.11 -1.4 M38.45 102.52 C67.47 69.24, 94.12 36.69, 127.32 1.21 M44.93 103.4 C75.76 63.68, 111.52 23.92, 131.62 -2.05 M43.38 102.19 C75.36 65.55, 108.97 27.42, 131.57 -1.03 M50.67 102.16 C68.95 81.37, 86.28 59.52, 138.77 -0.46 M48.3 102.54 C80.09 63.17, 113.2 26.81, 136.89 0.39 M54.89 102.38 C81.87 70.98, 111.18 36.65, 142.44 -0.1 M55.23 102.3 C73.17 78.22, 95.21 55, 142.34 -0.32 M58.32 101.11 C84.04 70.91, 113.36 38.29, 148.3 2.15 M59.35 101.95 C87.36 70.86, 113.44 39.11, 149.14 -0.22 M63.77 99.96 C97.54 64.25, 129.72 23.24, 154.09 -0.06 M65.23 102.65 C96.33 67.19, 126.62 33.19, 152.89 -0.68 M68.86 101.08 C104.97 63.45, 139.18 22.42, 158.36 1.5 M70.63 101.32 C99.22 67.49, 130.01 32.77, 159.37 -0.3 M76.6 103.97 C109.16 62.17, 142.42 24.14, 162.42 3.13 M76.02 102.32 C100.56 74.25, 124.61 45.68, 163.44 1.5 M79.45 101.65 C105.17 76.3, 130.81 46.15, 163.72 8.46 M81.69 102.74 C100.48 79.78, 117.77 59.89, 163.46 6.8 M87.35 100.99 C101.67 84.35, 118.27 65.08, 163.73 15.13 M86.71 101.65 C114.57 66.84, 144.4 33.5, 164.14 12.85 M90.27 103.39 C111.35 76.07, 134.32 52.97, 164.72 19.36 M90.57 101.81 C111.21 81.18, 130.19 58.49, 162.36 19.65 M95.04 100.84 C119.58 77.4, 139.96 51.91, 162.39 26.94 M96.91 102.72 C119.97 74.74, 141.33 50.2, 162.74 25.9 M100.5 103.88 C121.2 80.42, 140.62 56.09, 161.92 33.48 M101.8 101.59 C123.32 77.04, 143.92 52.99, 162.75 32.29 M106.34 101.61 C125.27 81.89, 141.61 62.71, 164.55 37.14 M107.43 102.37 C128.08 77.7, 149.41 52.1, 164.26 37.22 M112.3 101.69 C130.62 79.47, 150.07 61.52, 164.34 42.66 M112.43 102.69 C125.49 88.43, 137.89 73.79, 163.28 43.82 M118.93 102.37 C132.81 85.03, 149.36 66.57, 162.74 50.07 M117.56 102.94 C131.81 88.25, 143.6 73.64, 163.59 49.66 M122.85 100.42 C131.4 94.17, 141.94 83.76, 164.66 54.97 M123.99 101.19 C136.04 86.22, 150.89 72.33, 163.73 56.06 M129.48 103.2 C138.19 91.4, 151.02 77.25, 162.45 60.79 M129.07 102.26 C141.75 87.42, 155.55 72.27, 164.08 63.3 M132.31 100.62 C143.85 89.52, 158.44 75.01, 162.54 67.49 M134.52 102.66 C143.45 90.1, 153.56 80.32, 164.39 68.37 M137.65 101.18 C145.26 94.6, 153.88 88.15, 162.18 75.63 M138.26 101.66 C147.85 91.04, 157.79 81.43, 163.61 73.98 M143.86 99.89 C147.56 95.34, 150.88 92.77, 164.01 79.05 M144.57 102.21 C149.76 96.36, 154.89 90.48, 163.4 80.32 M150.13 102.38 C153.69 98.55, 154.84 94.19, 164.11 85.18 M149.92 101.99 C153.06 98.08, 158.15 92.56, 163.22 86.28 M155.51 101.22 C158.43 98.53, 159.08 97.58, 163.68 91.86 M155.21 102.18 C158.68 98.44, 161.11 95.36, 163.27 92.76 M160.33 102.13 C161.3 100.42, 162.79 99.36, 164 98.08 M160.03 102.05 C161.15 101.09, 162.14 99.96, 163.77 98.4" stroke="#ced4da" stroke-width="0.5" fill="none"></path><path d="M-0.07 -0.12 C64.09 2.9, 124.78 0.99, 163.1 -0.43 M-0.85 0.31 C64.74 -0.03, 129 -0.6, 161.67 -0.78 M163.3 0.84 C163.43 36.23, 161.4 70.77, 160.62 101.65 M162.91 -0.99 C160.29 30.33, 161.88 60.86, 162.88 101.67 M160.27 102.01 C110.19 99.79, 59.16 98.34, 0.6 101.45 M162.68 101.57 C109.39 100.28, 56.29 100.9, 0.33 101.85 M-0.79 99.63 C-0.47 72.45, -0.44 45.73, -1.67 1.25 M-0.71 100.12 C-0.42 64.54, 0.3 26.24, -0.14 -0.66" stroke="#000000" stroke-width="1" fill="none"></path></g><g transform="translate(40.67296600341797 924.0167522659756) rotate(0 76 12.5)"><text x="76" y="18" font-family="Virgil, Segoe UI Emoji" font-size="20px" fill="#000000" text-anchor="middle" style="white-space: pre;" direction="ltr">jax-rs</text></g><g stroke-linecap="round" transform="translate(39.14945983886719 438.0992107620693) rotate(0 79 48)"><path d="M1.03 -1.05 C37.28 -0.54, 78.93 0.5, 157.77 -1.71 M-0.24 0.91 C43.28 -0.81, 83.66 -0.54, 157.23 0.02 M159.61 1.13 C159.51 28.86, 160.62 57.42, 158.36 94.38 M158.82 0.12 C157.46 19.4, 158.14 39.11, 158.49 96.59 M157.55 97.2 C98.11 95.56, 41.14 96.9, 1.74 97.1 M157.44 95.73 C97.6 95.63, 38.81 95.5, -0.29 96.83 M-0.48 96.41 C-1.12 73.53, -0.67 53.61, -1.35 -1.39 M-0.98 95.13 C0.02 61.56, -0.55 27.15, 0.75 -0.83" stroke="#000000" stroke-width="1" fill="none"></path></g><g transform="translate(44.14945983886719 473.5992107620693) rotate(0 74 12.5)"><text x="74" y="18" font-family="Virgil, Segoe UI Emoji" font-size="20px" fill="#000000" text-anchor="middle" style="white-space: pre;" direction="ltr">Spring Rest</text></g><g stroke-linecap="round" transform="translate(290.3421630859375 154.5875225296474) rotate(0 197.52853393554688 184.82656097412107)"><path d="M-0.33 -0.73 C116.5 2.1, 232.73 1.53, 394.31 0.76 M0.18 0.01 C108.38 -1.71, 216.32 -2.2, 394.77 -0.57 M395.7 -0.13 C393.05 124.56, 394.27 250.27, 395.23 369.8 M394.45 -0.33 C395.77 136.35, 395.48 272.03, 395.57 370.11 M394.15 369.05 C301.96 368.12, 206.74 367.99, -0.52 368.59 M395.62 369.93 C246.15 369.81, 98.07 369.88, 0.2 369.77 M-0.27 370.18 C-0.56 273.16, -1.87 177.2, -1.18 -0.17 M0.15 370.27 C2.06 236.72, 2.55 103.82, -0.55 0.52" stroke="#000000" stroke-width="1" fill="none"></path></g><g stroke-linecap="round" transform="translate(246.34341430664062 646.364732598315) rotate(0 409.8265609741211 184.4539967417893)"><path d="M-0.52 0.07 C200.05 -2.88, 400.05 -2.34, 819.88 -0.35 M-0.15 0 C289.11 2.83, 578.68 2.78, 819.86 -0.36 M818.62 -0.29 C821.89 89.92, 822.08 176.93, 819.01 367.84 M819.69 0.58 C820.3 111.6, 820.87 223.04, 819.52 369.35 M820.43 368.51 C518.63 369.77, 217.04 368.47, -0.72 368.83 M819.71 368.92 C506.28 367.14, 192.67 367.38, 0.35 369.1 M-1.13 368.22 C-0.62 255.89, -1.72 139.89, -0.64 0.6 M-0.13 369.3 C-0.38 236.19, -0.25 102.98, -0.5 -0.14" stroke="#000000" stroke-width="1" fill="none"></path></g><g stroke-linecap="round" transform="translate(10 94.88588526158101) rotate(0 756.0070343017578 463.9139804840088)"><path d="M0.57 0.6 C423.72 -1.6, 848.87 -1.29, 1511.86 0.19 M0.08 0.35 C584.65 -6.06, 1169.58 -6.13, 1512.13 0.35 M1512.61 -0.49 C1512.39 227.94, 1511.41 456.96, 1512.06 928.52 M1511.7 -0.37 C1510.87 258.28, 1511.35 516.53, 1512.26 927.57 M1511.23 927.25 C1079.17 927.84, 647.3 927.32, -0.52 927.43 M1512.19 928 C944.56 931.03, 376.48 930.38, 0.39 927.57 M-0.63 927.18 C-0.08 605.98, -0.61 284.49, -0.47 -0.49 M0.17 927.7 C-1.75 573.05, -1.85 217.96, -0.26 -0.15" stroke="#000000" stroke-width="1" fill="none"></path></g><g stroke-linecap="round" transform="translate(381.4491882324219 884.994886421249) rotate(0 125.5 54.226593017578125)"><path d="M0 0 C0 0, 0 0, 0 0 M0 0 C0 0, 0 0, 0 0 M-0.21 5.9 C1.23 4.7, 2.66 2.27, 4.69 0.59 M-0.15 6.73 C1.14 4.36, 3.17 2.26, 4.69 0.05 M-1.31 11.71 C3.9 8.79, 5.68 5.36, 10.3 -0.57 M0.05 12 C3.42 8.63, 6.12 5.48, 11.23 -0.31 M-1.81 19.11 C4.49 14.63, 8.42 6.63, 14.33 -0.9 M-0.46 18.55 C2.65 15.62, 6.4 11.34, 15.26 -0.63 M2.22 23.52 C4.61 17.5, 10.71 10.12, 19.42 1.17 M0.35 23.2 C7.38 17.24, 12.2 10.3, 21.13 -0.81 M0.15 31.22 C6.93 22.02, 13.52 16.55, 25.28 -1.17 M0.36 30.04 C7.3 22.65, 11.79 16.24, 25.38 0.18 M-0.76 35.78 C7.98 27.15, 16.55 16.66, 31.89 1.81 M-0.84 36.67 C8.57 25.59, 18.89 12.9, 31.72 -0.76 M0.31 42.17 C9.92 28.68, 21.07 18.34, 36.17 0.3 M1.05 43.48 C9.74 32.33, 20.25 20.06, 36.96 0.05 M1.78 47.08 C12.51 35.14, 27.27 16.43, 43.21 0.89 M0.1 48.91 C17.84 29.45, 34.53 9.26, 43.24 0.07 M2.26 55.62 C17.15 33.37, 32.74 16.67, 47.05 -1.34 M-0.3 55.17 C15.53 37.04, 31.82 18.2, 47.81 -0.47 M1.27 61.35 C14.96 39.94, 33.66 22.4, 53.94 1.09 M0.36 61.24 C14.32 44.92, 28.04 29.69, 53.27 0.46 M-2.1 67 C23.07 41.97, 43.59 13.56, 59.03 0.1 M-0.76 66.64 C11.95 53.34, 23.48 39.58, 57.29 -0.34 M-1.22 72.75 C21.26 52.09, 41.22 29.24, 65.68 0.07 M-0.73 72.67 C16.02 55.99, 30.01 39.31, 62.9 -0.3 M-1.86 80.47 C26.78 50.53, 49.87 19.96, 70.17 1.79 M0.07 79.67 C17.97 59.68, 34.49 39.49, 68.22 -0.04 M0.4 86.46 C22.31 56.05, 47.18 26.92, 72.99 -1.5 M-0.34 84.76 C26.9 56.62, 51.84 26, 74.72 -0.42 M0.9 89.47 C26.76 62.27, 49.47 36, 79.55 -0.11 M0.12 90.82 C23.76 65.75, 46.25 37.57, 78.94 0.49 M0.54 99.41 C29.94 66, 54.04 35.4, 83.46 0.07 M-0.78 98.29 C19.06 75.54, 39.82 52.07, 84.8 0.4 M1.75 101.65 C27.82 69.42, 59.1 32.44, 91.25 1.59 M-0.54 104.37 C20.65 81.23, 38.48 58.81, 89.29 -0.21 M1.24 108.5 C39.53 65.73, 75.54 22.78, 97.66 -0.57 M-0.25 109.54 C22.65 87.05, 42.9 61.76, 94.75 -1.07 M7.18 108.91 C39.36 72.52, 66.72 36.9, 102.35 1.04 M5.6 108.31 C38.28 71.43, 71.22 35.97, 100.6 0.88 M12.13 110.09 C31.24 84.55, 50.26 61.21, 105.18 -1.73 M11.11 109.75 C34.52 83.57, 57.09 59, 105.63 0.47 M17.45 110.41 C46.19 72.04, 77.94 40.57, 110.93 -0.57 M16.31 109.44 C39.38 81.58, 62.17 55.09, 111.71 -0.69 M21.43 108.68 C55.42 69.98, 90.92 26.72, 115.93 2.01 M22.31 109.76 C49.81 77.06, 77.26 45.58, 115.4 -0.44 M26.55 108.13 C57.33 79.18, 83.25 45.17, 120.06 0.92 M27.57 108.84 C63.78 66.87, 99.93 26.35, 120.96 -0.88 M32.22 108.44 C55.35 81.44, 77.83 54.75, 126.81 0.8 M31.67 109.62 C57.8 80.69, 82.47 52.97, 127.43 0.98 M37.4 110.47 C72.96 67.62, 109.2 28.08, 133.83 0.69 M36.83 109.55 C74.84 66, 113 21.84, 132.17 0.85 M44.58 108.53 C75.12 73.15, 104.49 38.92, 137.73 2.09 M43.03 109.87 C64.42 84.62, 85.57 60.94, 136.66 0.28 M47.89 110.61 C76.67 79.98, 102.42 49.46, 141.31 0.91 M48.98 108.85 C69.16 83.33, 91.91 57.07, 142.69 -0.46 M55.6 107.14 C79.45 75.06, 108.87 44.78, 146.28 -0.46 M53.73 109.54 C86.71 73.65, 117.38 36.3, 148.18 0.74 M58.94 110.98 C79.08 87.8, 97.44 65.55, 152.57 -1.25 M58.44 108.78 C85.1 77.58, 112.55 47.79, 153.36 0.72 M63.33 109.43 C95.31 72.78, 127.16 37.78, 159.04 1.81 M64.6 108.18 C83.79 84.58, 104.84 61.67, 158.57 0.15 M69.13 108.24 C103.32 71.02, 136.37 30.73, 162.71 -1.61 M69.81 109.14 C102.55 70.82, 137.81 31.54, 164.5 0.44 M74.88 107.57 C95.62 86.45, 118.97 62.77, 167.57 0.59 M73.99 109.82 C105.28 75.32, 133.72 40.37, 169.92 0.81 M78.04 110.06 C104.97 82.31, 127.91 55.19, 175.79 -1.02 M79.17 110.2 C112.8 71.88, 146.68 33.15, 175.96 -0.77 M86.3 108.75 C109.71 79.87, 132.27 52.54, 180.46 -1.45 M85.72 109.01 C115.32 75.54, 145.43 41.01, 179.82 -0.5 M90.25 111.13 C126.42 65.83, 165.95 24.67, 184.89 -1.28 M90.1 108.76 C124.2 70.07, 159.03 28.56, 185.07 0.14 M94.69 107.12 C125.21 73.24, 154.83 41.14, 191.3 1.36 M97.13 108.77 C133.1 66.24, 170.97 22.61, 191.35 -0.49 M99.34 109.1 C121.21 86.22, 139.66 64.31, 196.1 -1.24 M101.7 110.12 C120.62 87.1, 138.96 64.44, 196.66 0.7 M106.12 107.86 C142.18 67.81, 177.03 27.41, 202.64 1.68 M107.05 108.66 C140.66 70.08, 173.06 31.87, 201.09 0.62 M111.88 108.66 C138.16 79.48, 162.86 52.72, 208.48 -0.72 M112.54 110.05 C139.22 75.69, 167.67 45.31, 207.07 -1.05 M115.66 107.15 C137.54 83.93, 158.49 64.4, 210.08 -0.81 M117.84 108.71 C141.64 82.63, 163.72 57.29, 211.14 -0.86 M123.45 109.46 C151.86 74.66, 182.3 42.61, 218.12 -0.54 M122.72 108.85 C149.89 76.25, 179.76 43.49, 218.15 -0.57 M127.4 108.15 C161.69 71.45, 191.16 37.21, 222.2 0.57 M127.31 109.46 C163.05 70.49, 195.91 31.15, 223.07 -0.15 M134.62 110.2 C152 83.29, 174.12 60.77, 230.1 1.46 M133.81 109.31 C167.54 68.28, 203.64 29.11, 229.22 -0.82 M138.41 109.03 C156.12 86.04, 174.86 66.85, 232.56 -0.52 M138.8 107.94 C165.4 79.64, 189.24 52.69, 233.98 0.03 M142.99 108.53 C167.69 80.76, 190.96 55.7, 237.84 -0.79 M142.92 108.71 C169.3 79.7, 192.5 51.23, 238.46 0.49 M150.78 106.98 C171.04 83.82, 191.92 59.51, 243.75 0.6 M149.16 107.71 C183.22 69.62, 217.65 30.3, 244.45 -0.53 M155.12 109.13 C186.92 68.63, 221.01 32.95, 249.72 -0.63 M154.61 108.84 C173.87 84.48, 196.44 61.1, 249.52 -0.1 M158.92 110.91 C193.02 71.96, 226.26 33.67, 254.04 1.11 M160.06 109.54 C189.69 76.59, 216.69 44.73, 253.26 1.99 M166.6 107.67 C190.74 79.83, 215.6 51.29, 254.62 9.42 M164.99 108 C192.95 76.38, 221.48 43.38, 253.03 8.24 M168.22 110.49 C195.53 79.59, 222.39 51.97, 251.47 13.49 M170.64 108.48 C201.03 70.29, 234.46 34.1, 253.45 14.16 M174 110.83 C200.55 78.23, 224.59 50.09, 252.23 20.51 M175.62 108.98 C198.71 82.69, 220.81 55.99, 252.93 19.54 M179.11 108.64 C203.7 80.31, 230.05 55.34, 252.12 27.34 M179.6 108.31 C208.52 76.09, 236.98 43.85, 252.62 27.21 M186.9 108.27 C206.2 85.56, 226.28 64.55, 252.56 33.28 M185.61 109.05 C206.56 85.32, 228.05 60.09, 254.01 32.8 M189.66 110.53 C208.38 90.28, 223.11 75.08, 253.91 40.08 M191.76 108.57 C208.25 87.86, 226.67 67.04, 252.69 37.69 M195.88 108.66 C217.48 82.64, 240.01 56.14, 254.05 44.66 M197.53 108.01 C207.87 95.17, 220.49 82.33, 251.95 44.82 M202.96 108.35 C214.51 97.09, 223.68 83.85, 252.42 51.38 M201.46 109.31 C220.29 88.34, 236.81 68.82, 253.76 49.88 M208.51 107.69 C224.69 91.48, 238.05 71.26, 254.07 56.31 M207.47 108.16 C219.64 95.19, 231.31 80.97, 251.88 56.62 M211.07 109.25 C224.61 93.8, 238.8 77.76, 252.23 63.93 M212.54 109.06 C223.11 96.62, 236.01 82.7, 253.4 62.56 M217.38 108.02 C224.44 98.88, 233.76 90.83, 253.05 67.17 M219.02 108.27 C232.76 91.71, 245.04 75.83, 252.5 68.01 M223.09 107.42 C231.41 100.44, 239.39 92.96, 254.25 76.14 M222.33 108.86 C229.95 100.99, 235.53 93.64, 252.04 75.8 M228.06 107.31 C236.38 101.99, 243.89 93.8, 253.08 82.39 M229.26 109.64 C238.87 97.62, 248.53 85.79, 252.63 80.52 M233.08 108.02 C236.72 103.28, 243.11 102.26, 254.39 87.18 M233.68 108.25 C241.83 101.73, 249.24 92.51, 253.59 87.85 M239.13 110.26 C243.84 104.53, 248.83 100.07, 253.22 94.16 M238.79 108.06 C243.45 103.57, 247.19 98.9, 252.62 92.19 M244.22 107.87 C246.21 105.03, 249.43 102.15, 252.03 98.1 M244.72 109.2 C246.45 106.36, 248.31 104.83, 253.28 99.6 M250.05 108.65 C250.29 107.93, 251.64 107.45, 252.7 105.82 M249.95 108.51 C251.07 107.66, 251.78 106.33, 252.84 105.8" stroke="#ced4da" stroke-width="0.5" fill="none"></path><path d="M1.55 0.86 C69.89 1.81, 136.51 1.32, 249.93 -1.21 M-0.55 0.41 C91.33 2.29, 181.48 2.03, 251.08 0.29 M252.28 1.72 C250.67 37.88, 249.96 78.9, 250.55 107.58 M251.49 0.09 C251.81 41.1, 251.94 81.27, 250.97 107.49 M251.61 109.32 C196.74 105.76, 142.63 106.91, -0.87 108.57 M250.27 108.8 C162.91 108.72, 74.79 107.86, 0.16 107.84 M-0.03 109.78 C1.94 82.11, 1.87 59.44, -1.45 -1.26 M-0.93 108.87 C0.58 84.24, 0.29 58.49, -0.85 0.91" stroke="#000000" stroke-width="1" fill="none"></path></g><g transform="translate(386.4491882324219 926.7214794388271) rotate(0 120.5 12.5)"><text x="120.5" y="18" font-family="Virgil, Segoe UI Emoji" font-size="20px" fill="#000000" text-anchor="middle" style="white-space: pre;" direction="ltr">jax-rs annotations</text></g><g transform="translate(697.1502853986085 659.9411411945622) rotate(0 174 12.5)"><text x="0" y="20" font-family="Cascadia, Segoe UI Emoji" font-size="20.349366600977106px" fill="#000000" text-anchor="start" style="white-space: pre;" direction="ltr">example-service-rest-api-spec</text></g><g transform="translate(23.66546630859375 108.9119434586025) rotate(0 89 12)"><text x="0" y="19" font-family="Cascadia, Segoe UI Emoji" font-size="20px" fill="#000000" text-anchor="start" style="white-space: pre;" direction="ltr">example-service</text></g><g transform="translate(435.97442626953125 184.0507030716396) rotate(0 34.5 12.5)"><text x="0" y="18" font-family="Virgil, Segoe UI Emoji" font-size="20px" fill="#000000" text-anchor="start" style="white-space: pre;" direction="ltr">pom.xml</text></g><g stroke-linecap="round" transform="translate(319.622802734375 228.43050959019428) rotate(0 155.5 20.039047241210938)"><path d="M0.39 -0.03 C103.54 -0.5, 206.58 -1.65, 311.84 0.13 M-0.69 0.14 C84.58 1.28, 168.26 -0.04, 310.4 0.03 M309.63 -1.01 C312.88 11.84, 310.35 22.19, 309.64 40.99 M310.34 0.81 C311.28 11.83, 311.69 25.09, 311.6 39.34 M311.85 41.3 C235.48 42.9, 158.41 40.18, 0.05 39.36 M310.93 40.39 C222.01 40.2, 131.58 39.19, 0.1 40.65 M-1.56 40.88 C-0.41 28.48, 0.7 15.58, -0.25 0.05 M0.82 39.32 C0.23 31.06, 1.14 20.81, -0.61 0.86" stroke="#000000" stroke-width="1" fill="none"></path></g><g transform="translate(324.622802734375 235.9695568314052) rotate(0 150.5 12.5)"><text x="150.5" y="18" font-family="Virgil, Segoe UI Emoji" font-size="20px" fill="#000000" text-anchor="middle" style="white-space: pre;" direction="ltr">springdoc dep.</text></g><g stroke-linecap="round"><g transform="translate(204.07100378183827 933.6129624572075) rotate(0 86.4336694802843 0.3988702785098326)"><path d="M0.14 -0.55 C28.92 -0.58, 142.96 -0.93, 171.74 -0.99 M-1.24 1.77 C28.02 1.94, 145.19 0.37, 174.11 0.07" stroke="#000000" stroke-width="1" fill="none"></path></g><g transform="translate(204.07100378183827 933.6129624572075) rotate(0 86.4336694802843 0.3988702785098326)"><path d="M145.13 9.6 C150.74 9.03, 157.03 6.27, 173.96 -1.2 M146.48 9.78 C153.64 8.33, 160.73 4.54, 173.91 0.8" stroke="#000000" stroke-width="1" fill="none"></path></g><g transform="translate(204.07100378183827 933.6129624572075) rotate(0 86.4336694802843 0.3988702785098326)"><path d="M144.88 -10.92 C150.41 -6.98, 156.76 -5.25, 173.96 -1.2 M146.24 -10.74 C153.62 -6.93, 160.78 -5.47, 173.91 0.8" stroke="#000000" stroke-width="1" fill="none"></path></g></g><g stroke-linecap="round"><g transform="translate(153.82770584414658 437.0992107620693) rotate(0 172.78827210313776 -81.36678197745698)"><path d="M0.9 0.55 C58.1 -26.2, 286.36 -134.48, 343.41 -161.56 M-0.09 -0.2 C57.48 -27.21, 288.07 -135.97, 345.67 -163.29" stroke="#000000" stroke-width="1" fill="none"></path></g><g transform="translate(153.82770584414658 437.0992107620693) rotate(0 172.78827210313776 -81.36678197745698)"><path d="M325.49 -143.41 C332.63 -150.61, 338.61 -155.91, 344.54 -162.95 M323.85 -141.05 C332.2 -149.11, 337.48 -155.86, 346.44 -163.52" stroke="#000000" stroke-width="1" fill="none"></path></g><g transform="translate(153.82770584414658 437.0992107620693) rotate(0 172.78827210313776 -81.36678197745698)"><path d="M316.72 -161.96 C326.46 -163.41, 335.18 -162.89, 344.54 -162.95 M315.08 -159.6 C326.09 -161.74, 334.18 -162.55, 346.44 -163.52" stroke="#000000" stroke-width="1" fill="none"></path></g></g><g stroke-linecap="round" transform="translate(991.2377014160156 247.03137781529193) rotate(0 77.1336669921875 67.5)"><path d="M0.3 -0.05 C30.99 -1.09, 63.27 -0.39, 152.92 1.48 M0.49 0.35 C47.05 -0.78, 93.26 1.06, 154.42 -0.91 M155.99 1 C152.96 26.04, 153.76 54.62, 153.61 135.03 M155.23 -0.05 C155.96 29.45, 154.43 60.88, 153.85 135.12 M153.29 133.52 C106.54 133.96, 60.33 135.72, -0.73 133.84 M154.77 135.15 C97.14 134.94, 39.42 134.42, -0.98 135.99 M-0.69 133.31 C-0.79 100.57, 0.78 65.64, 1.63 0.64 M-0.21 134.55 C-0.2 102.6, 0.39 70.23, 0.59 0.34" stroke="#000000" stroke-width="1" fill="none"></path></g><g transform="translate(996.2377014160156 252.03137781529193) rotate(0 72 62.5)"><text x="72" y="18" font-family="Virgil, Segoe UI Emoji" font-size="20px" fill="#000000" text-anchor="middle" style="white-space: pre;" direction="ltr">Spring REST </text><text x="72" y="43" font-family="Virgil, Segoe UI Emoji" font-size="20px" fill="#000000" text-anchor="middle" style="white-space: pre;" direction="ltr">EMPTY</text><text x="72" y="68" font-family="Virgil, Segoe UI Emoji" font-size="20px" fill="#000000" text-anchor="middle" style="white-space: pre;" direction="ltr">OpenAPI </text><text x="72" y="93" font-family="Virgil, Segoe UI Emoji" font-size="20px" fill="#000000" text-anchor="middle" style="white-space: pre;" direction="ltr">Swagger Spec </text><text x="72" y="118" font-family="Virgil, Segoe UI Emoji" font-size="20px" fill="#000000" text-anchor="middle" style="white-space: pre;" direction="ltr">json/yaml</text></g><g stroke-linecap="round"><g transform="translate(633.7894072966948 257.3462099937216) rotate(0 176.34936452151186 19.02593010032568)"><path d="M0.57 1.19 C59.62 7.51, 294.69 31.23, 353.28 37.28 M-0.58 0.78 C58.45 6.77, 294.03 29.54, 352.65 35.3" stroke="#000000" stroke-width="1" fill="none"></path></g><g transform="translate(633.7894072966948 257.3462099937216) rotate(0 176.34936452151186 19.02593010032568)"><path d="M325.59 43.77 C330.4 40.13, 336.97 37.82, 354.42 33.76 M324.16 43.13 C333.2 39.62, 343.94 37.05, 352.94 35.9" stroke="#000000" stroke-width="1" fill="none"></path></g><g transform="translate(633.7894072966948 257.3462099937216) rotate(0 176.34936452151186 19.02593010032568)"><path d="M327.58 23.35 C331.85 24.13, 337.99 26.24, 354.42 33.76 M326.15 22.71 C334.62 26.32, 344.67 30.86, 352.94 35.9" stroke="#000000" stroke-width="1" fill="none"></path></g></g><g stroke-linecap="round"><g transform="translate(629.4921736333872 700.7140331497646) rotate(0 63.78618208444311 -97.079364365321)"><path d="M0.44 -1.06 C22.01 -33.28, 107.15 -161.37, 128.36 -193.33 M-0.79 1.01 C20.7 -31.58, 105.51 -162.56, 127.34 -195.16" stroke="#000000" stroke-width="1" fill="none"></path></g><g transform="translate(629.4921736333872 700.7140331497646) rotate(0 63.78618208444311 -97.079364365321)"><path d="M118.67 -166.2 C122.82 -173.56, 125.16 -179.29, 126.46 -195.68 M119.58 -166.24 C123.79 -177.88, 126.44 -188.35, 127.53 -194.77" stroke="#000000" stroke-width="1" fill="none"></path></g><g transform="translate(629.4921736333872 700.7140331497646) rotate(0 63.78618208444311 -97.079364365321)"><path d="M101.52 -177.47 C109.34 -182.48, 115.34 -185.8, 126.46 -195.68 M102.43 -177.5 C113.35 -184.68, 122.7 -190.74, 127.53 -194.77" stroke="#000000" stroke-width="1" fill="none"></path></g></g><g stroke-linecap="round" transform="translate(1205.5207824707031 227.3945751419521) rotate(0 133.14190673828125 195.34662628173828)"><path d="M-1.01 0.67 C76.8 0.28, 155.58 0.19, 265.95 -0.78 M-0.05 0.74 C91.95 0.31, 183.65 -0.9, 265.52 -0.06 M267.37 -0.58 C265.75 102.79, 266.14 204.66, 265.85 391.39 M266.34 -0.12 C267.21 138.56, 268.06 277.26, 266.44 391.01 M265.03 390.38 C196.94 389.77, 125.98 389.92, -1.19 391.49 M265.72 391.28 C194.26 392.12, 121.08 391.5, -0.33 390.5 M0.89 391.31 C-1.85 292.21, -1.29 195.49, -0.35 -0.62 M-0.32 390.86 C1.47 303.86, 1.2 218.26, 0.55 0.33" stroke="#000000" stroke-width="1" fill="none"></path></g><g transform="translate(1223.6706848144531 232.34325220494037) rotate(0 102.5 25)"><text x="0" y="18" font-family="Virgil, Segoe UI Emoji" font-size="20px" fill="#000000" text-anchor="start" style="white-space: pre;" direction="ltr">Springdoc</text><text x="0" y="43" font-family="Virgil, Segoe UI Emoji" font-size="20px" fill="#000000" text-anchor="start" style="white-space: pre;" direction="ltr">OpenAPI Swagger UI</text></g><g stroke-linecap="round" transform="translate(1223.4733581542969 407.83265497593646) rotate(0 117.5 42.5)"><path d="M0 0 C0 0, 0 0, 0 0 M0 0 C0 0, 0 0, 0 0 M-0.97 6.9 C1.08 4.29, 4.01 1.67, 4.94 0.88 M-0.46 6.33 C1.43 4.18, 4.03 1.43, 4.98 0.64 M1.23 10.54 C1.34 9.11, 4.32 6.8, 9.75 -1.18 M0.35 12.69 C3.55 9.55, 4.75 5.44, 11.22 0.45 M-1.22 16.63 C4.12 15.99, 5.59 8.89, 15.6 1.08 M-0.94 18.29 C5.95 13.01, 11.2 6.11, 15.6 0.18 M1.77 22.48 C7.22 14.83, 14.43 5.62, 19.99 -1.26 M-0.28 24.33 C7.8 16.02, 13.29 8.43, 22.17 0.12 M-0.72 29.69 C9.97 19.2, 22.66 4.24, 26.44 1.57 M-0.98 31.47 C8 21.23, 16.02 11.47, 26.76 0.37 M-0.47 35.55 C6.26 30.35, 12.21 19.62, 32.75 0.16 M-0.64 36.67 C9.84 24.84, 21.88 11.51, 32.44 -0.41 M-1.85 40.91 C10.88 28.17, 23.17 17.06, 35.53 1.7 M-0.08 42.6 C9.23 31.35, 20.5 19.78, 37.46 0.21 M-1.74 50.44 C13.19 34, 25.26 20.35, 41.47 -2.11 M-0.32 48.93 C14.52 32.36, 28.4 15.59, 43.47 -0.68 M1.05 53.37 C16.64 35.55, 33.67 17.65, 48.06 1.05 M1.05 54.02 C11.14 41.65, 22.69 28.73, 47.26 -0.21 M-1.51 59.5 C16.87 44.87, 29.91 25.12, 54.85 0.01 M-0.44 59.97 C14.27 44.86, 27.02 27.64, 53.04 -0.85 M0 67.91 C18.99 45.01, 40.19 20.06, 56.2 0.19 M-0.47 68.32 C17.95 46, 37.65 22.18, 58.19 0.69 M0.39 71.28 C18.84 54.37, 31.91 36.84, 64.54 -0.42 M1.04 73.36 C14.89 55.57, 28.89 40.87, 63.46 0.41 M-0.01 80.1 C16.27 57.56, 35.8 39.72, 67.11 0.71 M-1.02 79.34 C18.25 58.84, 36.92 38.29, 68.78 0.01 M-0.87 83.38 C22.5 59.3, 49.96 31.73, 73.21 -1.31 M0.65 84.2 C20.27 61.71, 42.09 37.47, 73.49 -0.07 M4.27 86.72 C34.21 53.02, 63.32 19.97, 78.97 1.19 M4.77 84.61 C25.11 63.53, 42.1 44.12, 80.08 0.33 M11.38 86.3 C31.77 61.76, 52.15 38.44, 86.55 0.42 M9.94 84.99 C28.76 65.5, 46.04 44.97, 84.44 0.06 M14.53 86.86 C42.21 54.28, 70.9 21.11, 88.95 1.2 M16.19 84.48 C33.74 62.44, 55.07 39.37, 89.63 -0.27 M19.81 83.68 C44.74 54.08, 70.69 28.23, 97.22 0.85 M21.94 85.9 C39.51 63.47, 56.75 42.92, 96.09 0.63 M26.18 86.63 C43.71 64.39, 61.82 45.56, 101.22 1.31 M25.78 84.82 C46.18 63.82, 65.09 43.62, 101.46 -0.2 M32.6 84.12 C61.79 51.97, 91.51 16.65, 104.89 1.05 M32.7 84.5 C50.84 66.02, 66.52 44.74, 106.74 -1.03 M38.89 87.12 C61.22 57.66, 83.63 31.21, 110.96 -0.88 M37.84 84.96 C60.65 60.11, 81.32 35.4, 112.12 -0.38 M40.92 85.17 C69.1 53.88, 97.76 21.95, 115.58 -0.14 M42.75 85.9 C61.01 64.26, 78.53 44, 116.51 0.68 M47.35 86.39 C73.59 58.44, 95.42 28.88, 120.34 1.19 M47.14 85.75 C66.3 65.38, 83.35 46.25, 122.64 -0.21 M54.93 85.43 C70.48 63.56, 86.76 46.56, 128.28 -1.16 M53.13 84.66 C75.87 60.51, 96.32 35.2, 126.01 0.58 M57.21 83.53 C81.63 56.9, 104.81 29.93, 134.52 -0.9 M58.98 85.52 C76.33 66.23, 92.72 44.34, 132.56 0.38 M63.81 84.47 C80.41 64.83, 100.06 44.73, 138.99 -1.17 M63.38 84.89 C88.17 56.1, 114.17 28.61, 138.37 1.26 M69.16 86.62 C91.59 61.52, 112.53 35.72, 141.69 1.43 M69.15 86.1 C86.89 63.49, 105.4 43.43, 143.92 -1.01 M75.74 82.88 C94.28 63.79, 110.64 42.3, 147.4 0.91 M75.54 84.16 C94.57 61.36, 116.8 37.5, 147.87 0.07 M78.86 84.73 C95.72 68.26, 110.21 51.93, 153 1.77 M79.94 84.83 C105.89 55.53, 132.26 26, 153.27 0.7 M85.22 86.97 C114.54 51.6, 141.17 20.75, 160.17 -0.85 M85.5 86.32 C114.84 51.86, 143.97 18.57, 159.32 -0.17 M88.98 83.94 C117.35 51.78, 145.93 20.52, 162.64 -1.31 M90.14 84.55 C116.81 53.95, 145.19 23.11, 163.63 0.09 M95.75 85.82 C113.46 62.7, 130.89 44.31, 170.97 0.63 M95.6 86.44 C116.79 62.19, 136.91 39.41, 169.99 0.88 M101.21 83.33 C116.83 66.93, 134.32 48.68, 175.78 -0.24 M101.03 85.59 C123.4 58.95, 145.48 33.58, 174.55 -0.74 M107.84 83.77 C124.89 64.36, 140.1 44.97, 180.48 1.43 M106.73 85.36 C126.14 61.02, 148.84 35.15, 179.67 1.05 M112.2 86.98 C140.86 50.54, 169.09 18.98, 184.58 1.56 M112.4 85.79 C131.54 62.22, 151.65 38.99, 186.08 -0.22 M117.65 85.39 C135.51 63.84, 157 41.83, 192.37 -1.37 M116.92 84.67 C141.23 57.7, 166.06 28.18, 190.66 -0.31 M121.63 83.97 C150.36 50.64, 180.85 19.24, 196.22 1.68 M122.55 84.48 C148.54 54.2, 175.98 23.87, 196.73 -1.26 M128.37 84.26 C143.72 66.26, 161.24 47.56, 201.31 -1.69 M126.72 85.45 C149.32 61.78, 170.14 37.37, 201.75 -0.37 M132.18 84.37 C161.82 54.49, 188.03 21.11, 208.88 -1.31 M132.26 84.5 C149.05 66.52, 164.68 50.37, 207.57 -1.26 M138.16 86.96 C161.32 56.04, 184.36 28.83, 212.97 -0.45 M137.16 86.29 C163.43 55.81, 186.28 28.72, 212.21 -0.8 M141.51 83.26 C169.76 56.71, 195.92 24.39, 215.72 0.17 M142.82 84.19 C158.79 68.74, 172.67 50.57, 218.11 -0.15 M148.2 85.07 C175.85 53.55, 207.73 18.12, 224.03 -1.59 M147.79 85.29 C166.98 64.56, 184.76 42.85, 221.85 0.24 M154.3 84.73 C180.43 51.86, 209.28 20.51, 228.91 -1.31 M154.03 85.38 C172.48 63.17, 192.51 39.71, 228.42 -0.34 M158.66 87.16 C178.59 59.55, 200.14 35.98, 234.15 -0.01 M158.64 86.01 C184.54 56.31, 207.79 28.96, 232.95 0.09 M166.21 85.84 C187.74 58.54, 212.74 30.52, 237.66 2.11 M164.16 85.41 C186.06 60.91, 207.67 36.71, 237.04 1.52 M168.7 86.81 C190.78 58.15, 215.44 30.62, 235.45 5.91 M170.26 85.55 C186.27 66.53, 203.31 46.77, 237.74 7.13 M175.93 84.68 C197.35 59.35, 222.99 28.71, 237.58 12.54 M176.01 85.11 C194.06 63.91, 213.84 42.3, 236.48 13.56 M180.51 86.61 C201.35 60.72, 221.21 41.14, 235.57 20.97 M179.67 84.49 C192.72 70.93, 205.33 58.05, 237.48 19.43 M185.12 84.32 C203.71 63.59, 222.93 41.46, 238.38 27.75 M186.87 84.82 C200.94 68.25, 215.93 49.86, 236.78 26.07 M191.25 86.12 C206.87 66.45, 221.19 50.85, 236.43 31.23 M190.42 84.93 C207.67 64.9, 224.01 46.65, 237.2 32.79 M198.45 84.85 C207.62 72.13, 217.09 61.11, 236.21 36.32 M196.53 84.38 C211.55 66.48, 227.76 48.06, 237.99 38.62 M201.1 85.93 C215.88 69.91, 229.79 55.95, 237.04 42.51 M202.56 84.44 C210.59 75.21, 217.75 65.99, 236.54 45.3 M206.95 84.09 C213.82 77.37, 221.17 68.42, 237.61 52.58 M206.62 85.87 C214.75 75.94, 223.96 66.39, 236 51.05 M213.22 83.62 C220.33 74.72, 230.02 61.51, 236.07 56.89 M212.61 84.12 C218.64 76.87, 225.12 70.56, 236.28 55.8 M218.59 86.62 C222.96 81.91, 227.5 74.75, 238.04 61.6 M217.23 84.62 C220.24 80.34, 226.12 77.01, 237.15 62.45 M221.79 85.76 C227.87 79.76, 232.29 71.62, 239.2 69.45 M223.61 84.54 C227.23 79.89, 230.32 76.79, 237.72 68.62 M226.82 84.62 C230.1 82.54, 233 79.15, 237.73 75.46 M227.26 85.64 C231.64 82.48, 233.83 78.99, 236.53 75.41 M233.11 84.76 C234.95 84.1, 235.21 82.51, 237.18 81.2 M233.39 85.23 C234.94 83.68, 236.13 82.15, 236.57 81.03" stroke="#ced4da" stroke-width="0.5" fill="none"></path><path d="M1 -1.26 C75.09 -0.1, 149.31 -1.25, 236.27 1.22 M-0.25 -0.23 C82.52 1.76, 164.5 1.2, 234.71 0.46 M235.26 0.34 C234.2 22.54, 234.92 50.46, 233.22 85.24 M234.94 -0.68 C233.93 20.98, 233.88 40.84, 234.82 85.76 M236.59 85.21 C149.82 84.63, 65.49 82.61, -1.29 83.72 M234.31 84.48 C165.42 85.71, 96.93 86.09, 0.13 84.47 M1.57 84.34 C2.59 65.14, 2.48 44.72, 0.67 1.31 M-0.31 84.61 C0.09 56.52, -1.57 28.84, -0.07 -0.47" stroke="#000000" stroke-width="1" fill="none"></path></g><g stroke-linecap="round" transform="translate(1218.6233520507812 328.88721277622943) rotate(0 121 30)"><path d="M-0.84 -0.44 C54.42 -2.05, 110.45 -2.33, 241.31 -0.47 M-0.03 0.37 C59.84 2.01, 120.26 0.9, 241.59 0.3 M242.22 -0.29 C242.42 12.76, 240.19 30.73, 242.19 61.19 M242.34 0.63 C242.03 13.76, 241.84 28.7, 241.76 59.54 M243.37 59.49 C168.45 59.55, 94.76 61.58, 0.49 59.46 M241.94 60.31 C177.65 61.51, 110.96 62.05, -0.21 59.53 M1.7 61.99 C0.75 42.98, 0.11 31.54, 0.85 0.35 M-0.75 59.96 C0.56 36.89, 0.36 14.1, 0.45 -0.65" stroke="#000000" stroke-width="1" fill="none"></path></g><g transform="translate(1223.6233520507812 333.88721277622943) rotate(0 116 25)"><text x="116" y="18" font-family="Virgil, Segoe UI Emoji" font-size="20px" fill="#000000" text-anchor="middle" style="white-space: pre;" direction="ltr">spring rest </text><text x="116" y="43" font-family="Virgil, Segoe UI Emoji" font-size="20px" fill="#000000" text-anchor="middle" style="white-space: pre;" direction="ltr">empty.json/yaml</text></g><g transform="translate(1258.4733581542969 437.83265497593646) rotate(0 82.5 12.5)"><text x="82.5" y="18" font-family="Virgil, Segoe UI Emoji" font-size="20px" fill="#000000" text-anchor="middle" style="white-space: pre;" direction="ltr">openapi.json/yaml</text></g><g stroke-linecap="round"><g transform="translate(938.5015353330574 776.6633494192637) rotate(281.89649115161444 217.80703212021183 -596.002084129996)"><path d="M-0.27 0.26 C72.16 -59.03, 427.44 -156.66, 435.73 -355.11 C444.02 -553.56, 113.83 -1051.15, 49.49 -1190.45 M1.79 -0.65 C74 -59.79, 427.29 -155.02, 435.06 -353.62 C442.83 -552.23, 112.61 -1052.34, 48.38 -1192.26" stroke="#000000" stroke-width="1" fill="none"></path></g><g transform="translate(938.5015353330574 776.6633494192637) rotate(281.89649115161444 217.80703212021183 -596.002084129996)"><path d="M71.42 -1171.66 C61.73 -1181.51, 54.59 -1189.05, 49.3 -1190.38 M70.77 -1172.18 C66.29 -1176.47, 59.98 -1182.64, 49.3 -1192.14" stroke="#000000" stroke-width="1" fill="none"></path></g><g transform="translate(938.5015353330574 776.6633494192637) rotate(281.89649115161444 217.80703212021183 -596.002084129996)"><path d="M53.45 -1161.75 C50.85 -1175.5, 50.86 -1186.98, 49.3 -1190.38 M52.8 -1162.26 C52.74 -1169.11, 50.83 -1177.71, 49.3 -1192.14" stroke="#000000" stroke-width="1" fill="none"></path></g></g><g stroke-linecap="round"><g transform="translate(1147.4448547363281 313.6843441499881) rotate(0 34.73184140920637 20.12129262919146)"><path d="M-0.55 0.04 C11.31 6.61, 58.18 33.19, 70.01 39.71 M1.37 -0.98 C13.16 5.75, 57.56 34.35, 68.97 41.22" stroke="#000000" stroke-width="1" fill="none"></path></g><g transform="translate(1147.4448547363281 313.6843441499881) rotate(0 34.73184140920637 20.12129262919146)"><path d="M39.7 34.71 C45.54 36.85, 50.69 36, 69.93 42.19 M39.51 35.95 C48.63 36.45, 56.14 37.29, 68.55 41.62" stroke="#000000" stroke-width="1" fill="none"></path></g><g transform="translate(1147.4448547363281 313.6843441499881) rotate(0 34.73184140920637 20.12129262919146)"><path d="M50.57 17.3 C54.25 22.95, 57.17 25.65, 69.93 42.19 M50.38 18.54 C56.58 23.84, 61.12 29.44, 68.55 41.62" stroke="#000000" stroke-width="1" fill="none"></path></g></g><g stroke-linecap="round"><g transform="translate(514.6798328508969 880.9139080276943) rotate(0 -0.040077786910330815 -33.86531606186645)"><path d="M-0.9 -0.62 C-0.81 -12.06, 0.24 -58.1, 0.44 -69.4 M0.82 1.67 C0.84 -9.54, 0.12 -56.05, -0.03 -68.07" stroke="#000000" stroke-width="1" fill="none"></path></g><g transform="translate(514.6798328508969 880.9139080276943) rotate(0 -0.040077786910330815 -33.86531606186645)"><path d="M9.59 -38.51 C7.01 -47.03, 5.51 -57.82, 1.33 -66.84 M10.85 -40.3 C6.46 -48.62, 2.55 -59.33, 0.09 -67.81" stroke="#000000" stroke-width="1" fill="none"></path></g><g transform="translate(514.6798328508969 880.9139080276943) rotate(0 -0.040077786910330815 -33.86531606186645)"><path d="M-10.93 -38.22 C-7.51 -46.67, -3.01 -57.55, 1.33 -66.84 M-9.66 -40.01 C-7.33 -48.32, -4.51 -59.13, 0.09 -67.81" stroke="#000000" stroke-width="1" fill="none"></path></g></g><g stroke-linecap="round"><g transform="translate(110.4554167948624 537.7914328507194) rotate(0 126.15868976631785 80.98345432914618)"><path d="M0.81 1.14 C42.7 28.11, 208.37 134.68, 250.24 161.27 M-0.22 0.7 C42.15 27.37, 210.55 132.65, 252.54 159.55" stroke="#000000" stroke-width="1" fill="none"></path></g><g transform="translate(110.4554167948624 537.7914328507194) rotate(0 126.15868976631785 80.98345432914618)"><path d="M225.13 151.87 C230.56 155.93, 235.65 155.74, 252.93 160.25 M223.81 153.59 C230.84 154.73, 238.81 157.15, 252.35 158.98" stroke="#000000" stroke-width="1" fill="none"></path></g><g transform="translate(110.4554167948624 537.7914328507194) rotate(0 126.15868976631785 80.98345432914618)"><path d="M236.09 134.52 C239.17 142.25, 241.98 145.67, 252.93 160.25 M234.77 136.24 C238.81 142.08, 243.74 149.31, 252.35 158.98" stroke="#000000" stroke-width="1" fill="none"></path></g></g><g stroke-linecap="round" transform="translate(762.4354705810547 407.6614208450771) rotate(0 70.5 55)"><path d="M0 0 C0 0, 0 0, 0 0 M0 0 C0 0, 0 0, 0 0 M-0.4 6.43 C1.38 4.7, 1.88 3.99, 5.32 -0.02 M-0.55 6.13 C1.57 4.88, 3.2 2.86, 4.68 0.05 M-0.22 13.63 C3.68 8.02, 4.99 4.47, 11.91 0.45 M-0.22 12.47 C4.09 7.85, 7.57 4.59, 10.86 0.09 M0.44 19.32 C3.78 13.91, 9.87 6.39, 15.98 1.76 M-0.23 18.89 C5.99 11.73, 11.81 4.73, 15.2 0.12 M-0.43 25.14 C10.22 14.44, 17.37 5.6, 23.03 -1.3 M0.51 24.52 C7.73 15.98, 14.74 8.18, 21.8 -0.53 M1.93 28.74 C6.01 23.82, 10.68 19.9, 24.31 -0.42 M-0.74 31.12 C8.78 20.92, 16.49 11.25, 26.52 0.85 M-2.09 38.55 C6.39 27, 16 16.44, 30.93 1.01 M-0.96 37.87 C11.07 25.31, 21.09 12.92, 32.5 0.71 M-0.54 42.43 C7.21 32.71, 18.14 23.15, 34.91 0.05 M-0.41 42.72 C9.22 32.87, 19.47 21.7, 35.99 0.3 M0.11 47.93 C13 31.99, 31.29 15.36, 44.49 -1.82 M0.41 49.67 C17.33 30.32, 34.4 10.41, 42.58 0.64 M1.59 55.03 C12.94 39.76, 30.12 23.18, 48.84 1.35 M0.34 54.48 C13.2 38.54, 27.21 23.69, 46.96 -0.47 M-1.42 60.18 C15.87 41.37, 36.07 20.87, 53.31 -0.11 M-0.69 61.71 C15.83 42.44, 31 24.62, 53.14 0.55 M1.26 68.99 C12.98 51.5, 25.09 39.16, 56.19 0.64 M-0.06 66.44 C10.98 52.98, 23.87 37.8, 58.25 0.07 M-0.6 72.5 C13.82 55.01, 27.84 42.59, 63.96 -1.19 M0.57 73.53 C14.46 56.59, 29.89 38.18, 64.76 0.22 M-1.65 79.46 C24.29 49.43, 50.89 22.49, 68.03 2.1 M0.29 78.88 C17.39 59.52, 35.17 40.64, 68.21 -0.05 M1.65 85.05 C25.19 53.54, 53.97 24.61, 76.01 -1.4 M0.53 85.16 C22.37 61.66, 42.75 36.64, 73.52 -0.05 M-0.22 90.88 C21.76 65.92, 46.57 41.78, 80.44 0.89 M0.81 90.84 C21.64 66.5, 43.68 42.14, 78.68 -0.28 M0.75 97.75 C24.01 72.11, 48.77 42.75, 86.04 -2.05 M0.36 97.9 C27.47 66.82, 53.8 35.61, 85.02 0.52 M2.14 101.91 C21.08 76.98, 47.62 50.51, 90.49 -0.8 M1.1 103.11 C20.76 82.21, 39.01 61, 90.98 0.42 M-0.9 111.28 C19.57 86.3, 43.99 59.62, 95.64 -1.48 M0.72 109.28 C30.28 76.02, 59.98 41.35, 96.33 -0.77 M1.62 111.2 C35.86 75.18, 65.4 38.86, 100.28 -1.8 M2.86 111.97 C28.77 84.85, 53.18 55.19, 99.96 -0.42 M5.98 114.49 C28.55 89.52, 46.24 66.61, 107.38 0.98 M7.65 112.54 C33.47 85.5, 58.3 56.2, 106.05 -0.14 M14.05 113.39 C41.02 82, 66.26 52.2, 112.87 -1.95 M13.93 113.16 C34.59 86.79, 57.6 63.14, 111.94 -0.76 M19.23 113.6 C55.26 69.93, 94.58 26.54, 116.19 1.76 M18.25 113.76 C39.5 89, 59.36 64.72, 115.61 -0.55 M23.13 113.21 C45.4 88.69, 63.63 66.89, 120.34 1.92 M24.52 112.03 C61.73 67.43, 99.94 23.71, 122.77 -0.05 M28.3 110.8 C53.48 82.12, 81.09 54.78, 127.94 2.03 M29.73 112.48 C57.45 82.03, 84.75 48.21, 127.89 1.29 M33.46 113.34 C60.27 86.93, 82.45 59.74, 131.78 0 M34.22 113.37 C62.84 77.19, 94.05 43.05, 131.78 0.74 M38.27 112.26 C68.97 79.48, 97.74 47.85, 135.57 0.21 M39.42 111.76 C63.58 86.03, 85.79 60.71, 137.34 -0.59 M46.59 111.43 C83.18 69.81, 120.82 26.84, 140.59 2.2 M46.11 112.47 C77.27 75.22, 109.36 38.7, 143.16 -0.09 M51.21 111.16 C78.68 79.98, 106.42 49.8, 143.75 7.76 M50.16 113.13 C72.68 87.14, 94.98 61.83, 142.63 6.41 M57.12 112.17 C77.13 86.91, 96.36 61.56, 140.03 12.02 M56.78 113.11 C81.75 83.44, 106.29 55.83, 141.39 12.81 M62.21 111.66 C81.45 88.67, 100.79 67.29, 141.37 18.84 M60.28 112.62 C90.8 76.97, 122.96 42.15, 143.16 19.06 M68.61 111.23 C94.36 84.86, 119.22 52.78, 141.32 23.8 M66.32 111.59 C88.09 86.97, 109.09 63.43, 141.46 25.16 M71.35 112.94 C88.64 91.97, 104.86 76.44, 140.95 31.61 M71.63 112.78 C96.22 83.17, 121.09 55.83, 142.46 31.62 M77.65 111.27 C99.49 84.52, 127.16 56.47, 140.88 36.46 M78.3 112.7 C91.27 94.86, 106.46 79.68, 142.06 36.74 M83.69 113.17 C98.3 91.48, 116.73 70.37, 141.36 42.22 M81.53 112.65 C100.82 91.6, 117.64 70.06, 142.92 43.87 M89.82 113.98 C107.37 88.51, 124.75 68.88, 140.8 51.18 M87.83 111.72 C102.85 94.18, 120.52 75.38, 142.02 49.11 M93.32 113.51 C108.34 96.53, 119.21 79.44, 140.55 56.1 M92.82 111.77 C104.84 98.54, 116.56 85.35, 142.47 56.35 M99.69 112.01 C109.86 97.67, 121.81 84.85, 143.49 60.89 M99.47 112.44 C111.95 95.63, 125.79 79.59, 141.03 63.04 M103.32 114.15 C115.61 99.16, 127.76 83.68, 142.07 68.92 M103.84 112.17 C113.34 102.18, 122.63 91.84, 143.19 67.36 M110.84 113.05 C118.16 100.11, 125.72 91.27, 142.34 75.25 M109.33 111.16 C120.89 96.65, 134.2 83.52, 142.22 73.57 M113.77 114.26 C124.47 99.81, 135.66 91.33, 142.52 79.35 M114.43 112.4 C124.07 101.16, 134.44 89.02, 142.68 79.68 M119.19 112.52 C124.97 106.48, 129.67 99.08, 141.78 85.18 M118.32 113.41 C124.33 106.69, 128.36 101.75, 142.28 86.5 M125.74 112 C128.46 108.17, 132.17 104.61, 142.81 93.83 M123.91 111.49 C132.02 105.66, 139.04 96.43, 141.37 93.36 M131.55 114.49 C134.85 107.15, 139.59 100.74, 143.8 99.78 M128.9 112.97 C133.68 107.8, 138.93 101.01, 142.06 99.32 M136.38 112.5 C138.03 110.01, 138.83 108.92, 142.43 104.2 M135.29 112.71 C137.95 109.88, 140.13 108.09, 141.58 104.79" stroke="#ced4da" stroke-width="0.5" fill="none"></path><path d="M1.23 -0.7 C29.12 0.93, 59.01 1.4, 141.87 1.57 M-0.28 0.91 C44.34 0.19, 89 -0.11, 141.95 -0.98 M142.89 0.52 C142.11 24.85, 142.88 52.11, 142 109.06 M140.45 -0.32 C140 44.38, 140.75 87.5, 140.62 109 M139.09 108.78 C99.34 112.45, 52.89 110.43, -0.77 111.19 M140.38 109.06 C99.2 108.79, 55.13 109.19, 0.32 110.44 M0.63 109.18 C-0.08 71.85, 1.45 37.34, 0.4 -0.01 M0.83 109.51 C-0.82 76.79, -0.73 42.31, 0.85 0.81" stroke="#000000" stroke-width="1" fill="none"></path></g><g transform="translate(767.4354705810547 412.6614208450771) rotate(0 65.5 50)"><text x="65.5" y="18" font-family="Virgil, Segoe UI Emoji" font-size="20px" fill="#000000" text-anchor="middle" style="white-space: pre;" direction="ltr">OpenAPI </text><text x="65.5" y="43" font-family="Virgil, Segoe UI Emoji" font-size="20px" fill="#000000" text-anchor="middle" style="white-space: pre;" direction="ltr">Swagger Spec</text><text x="65.5" y="68" font-family="Virgil, Segoe UI Emoji" font-size="20px" fill="#000000" text-anchor="middle" style="white-space: pre;" direction="ltr">json/yaml</text><text x="65.5" y="93" font-family="Virgil, Segoe UI Emoji" font-size="20px" fill="#000000" text-anchor="middle" style="white-space: pre;" direction="ltr">Static File</text></g><g stroke-linecap="round" transform="translate(1666.075439453125 521.7246914139247) rotate(0 98 67.50000000000003)"><path d="M0 0 C0 0, 0 0, 0 0 M0 0 C0 0, 0 0, 0 0 M-0.65 5.75 C0.67 5.01, 3.28 2.21, 5.35 -0.35 M-0.28 6.52 C0.91 5.19, 2.11 3.8, 5.22 0.44 M1.35 13.58 C4.08 8.51, 9.34 2.01, 10.51 1.32 M0.07 12.13 C3.3 9.85, 5.29 7.04, 10.19 -0.08 M-0.66 16.65 C5.39 11.21, 10.54 4.21, 16.67 1.57 M-1.06 19.15 C2.45 15.13, 6.75 10.13, 14.81 -0.2 M2.19 22.19 C7.46 16.08, 9.75 11.54, 20.87 -1.37 M-0.13 23.8 C6.42 16.74, 14.48 9.16, 21.76 -0.68 M1.47 32.4 C8.05 20.73, 17.68 10.57, 26.46 -0.42 M-0.54 30.96 C10.46 19.96, 19.09 9.01, 27.02 -0.61 M0.02 38.26 C9.37 25.12, 17.56 16.4, 30.96 1.58 M-0.97 36.03 C11.38 22.96, 24.02 7.6, 31.01 -0.33 M0.21 44.19 C14.15 25.36, 27.82 11.09, 38.84 0.27 M-0.41 42.18 C14.31 26.14, 29.2 9.13, 36.28 -0.37 M0.03 48.32 C15.76 30.58, 29.46 12.52, 40.79 1.69 M-1.08 49.63 C12.55 34.03, 24.82 20.21, 41.68 -0.5 M-0.35 55.19 C19.45 34.25, 35.55 12.53, 46.4 -1.67 M1.15 55.35 C17.25 33.77, 35.93 14.98, 48.18 -0.7 M-1.84 59.81 C21.77 36.5, 42.03 11.08, 51.47 1.11 M0.49 60.13 C21.08 38.48, 40.25 13.35, 53.09 -0.16 M0.21 68.34 C13.17 55.7, 26.28 40.39, 58.71 -0.58 M-1.17 68.27 C15.3 49.39, 30.73 32.22, 57.8 -0.29 M-0.02 74.39 C13.33 59.49, 26.41 41.38, 65.06 1.04 M0.81 72.83 C14.89 55.23, 28.34 39.02, 64.07 0.25 M1.27 79.29 C15.21 61.9, 35.34 40.14, 70.35 0.22 M0.78 78.96 C18.92 56.69, 36.13 36.85, 69.74 0.63 M0.06 84.75 C28 54.57, 57.96 19.16, 72.64 1.63 M0.47 85.52 C19.71 63.77, 38.22 41.68, 74.98 0.76 M1.26 92.97 C21.44 66.46, 44.33 41.41, 80.89 0.4 M0.68 92.21 C18.42 68.93, 37.97 45.76, 80.07 0.35 M1.33 99.3 C18.86 76.12, 38.43 52.85, 86.29 -1.94 M-1.09 97.23 C29.67 63.72, 61.12 28.43, 85.63 -0.1 M0.26 104.55 C18.18 84.82, 36.44 64.1, 90.92 -1.37 M0.36 102.57 C28.48 72.74, 54.6 42.67, 90.38 -0.33 M1.67 111.21 C27.51 80.4, 55.08 47.62, 95.09 0.51 M-0.99 109.25 C22.17 82.84, 45.47 55.7, 95.37 -1.29 M-0.65 116.21 C26.54 81.77, 56.86 49.48, 102.01 0.58 M1.16 115.07 C37.29 72.32, 75.13 29.16, 99.76 -0.13 M-1.98 122.91 C36.79 79.98, 72.47 40.09, 105.12 -1.87 M-0.79 121.62 C33.21 82.13, 66.45 44.17, 107.04 -1.25 M-0.05 129.86 C35.11 88.97, 67.52 46.34, 112.75 -1.08 M-0.74 128.01 C32.49 91.58, 63.78 53.7, 110.8 0.74 M0.95 135.06 C45.83 83.05, 89.5 26.98, 114.79 -0.13 M0.1 134.13 C44.13 82.27, 87.91 32.25, 116.31 0.79 M1.07 137.16 C32.28 100.08, 66.91 63.34, 122.7 1.33 M2.93 136.9 C33.95 99.69, 68.08 60.13, 121.57 0.58 M9.9 138.28 C55.03 82.65, 101 32.51, 125.51 -0.62 M7.63 136.02 C48.86 91.45, 87.62 44.91, 126.33 -0.13 M11.38 136 C44.04 103.2, 73.33 66.64, 132.45 -1.52 M12.6 137 C44.71 101.06, 75.25 64.33, 131.68 0.16 M20.22 137.29 C64.84 83.53, 112.01 31.22, 137.68 -0.42 M18.15 136.11 C51.33 96.81, 86.96 57.38, 137.79 -0.22 M24.09 137.59 C64.05 91, 103.43 48.5, 143.57 0.04 M23.73 136.4 C72.02 83.18, 118.39 28.84, 142.19 0.79 M30.19 137.52 C57.89 105.14, 84.08 74.39, 149.4 1.66 M29.45 137.45 C56.9 105.46, 85.2 73.08, 147.51 0.06 M33.27 139.12 C68.65 95.85, 104.16 54.1, 154.65 -1.32 M35.16 136.64 C65.72 99.41, 97.33 62.17, 153.7 0.24 M39.7 138.14 C77.39 95.72, 115.23 52.67, 159.73 1.78 M39.44 138.35 C66 111.25, 89.12 83.03, 157.83 0.75 M46.02 136.76 C81.75 94.4, 123.9 48.81, 165.26 -1.92 M45.22 137.75 C86.37 91.44, 128.05 44.41, 164.3 0.81 M51.69 135.58 C93.51 90.59, 133.56 40.16, 168.76 -0.88 M49.54 137.82 C81.02 101.46, 113.97 64.22, 168.6 0.4 M54.39 137.67 C93.5 94.11, 127.37 51.12, 175.97 0.9 M55.76 136.29 C93.38 92.71, 133.87 46.42, 175.56 -0.72 M58.72 136.51 C91.08 104.4, 119.51 70.04, 181.56 -0.16 M61.34 136.67 C101.34 87.35, 145.89 38.42, 179.13 0.03 M67.48 136.03 C104.52 91.78, 143.69 48.3, 184.38 0.81 M66.1 137.28 C111.11 88.28, 154.77 36.88, 186.58 -1.05 M70.38 138.6 C97 107.36, 125.37 74.9, 192.22 1.12 M71.93 138.19 C101.12 101.07, 131.9 66.89, 190.28 -0.81 M75.35 137.01 C119.01 86.71, 163.58 36.97, 197.05 -1.5 M77.08 136.27 C107.29 100.07, 140.31 63.38, 195.95 -0.39 M81.25 138.51 C111.27 104.32, 141.28 69.96, 194.55 5.17 M81.9 138.16 C124.85 87.65, 168.96 38.79, 195.13 5.95 M89.1 136.78 C128.57 89.54, 170.93 40.87, 194.41 14.46 M87.05 137.29 C118.7 100.87, 149.58 64.35, 196.58 12.37 M90.89 135.94 C123.57 99.71, 157.86 64, 196.65 19.16 M93.32 136.87 C116.42 110.68, 138.5 85.12, 195.52 18.85 M96.79 138.52 C128.1 100.69, 157.38 68.4, 196.86 25.78 M97.82 136.89 C130.43 98.13, 162.02 62.23, 195.89 24.43 M103.89 137.53 C124.45 112.33, 145.5 89.44, 196.83 31.22 M103.78 137.11 C131.39 105.45, 158.99 73.33, 196.02 30.9 M107.5 136.4 C145.02 97.65, 177.4 58.14, 197.3 34.88 M108.75 136.1 C139.97 101.2, 169.5 66.71, 196.3 35.85 M113.83 136.98 C136.04 112.37, 158.66 84.69, 196.52 43.29 M114.38 138.18 C130.01 118.12, 147.38 99.26, 194.82 42.39 M119.31 135.58 C136.15 117.39, 154.37 93.78, 194.32 50.43 M118.67 136.46 C146.95 106.05, 172 75.25, 196.39 48.41 M123.29 138.94 C137.06 117.74, 154.66 103.93, 196.11 54.01 M123.7 137.85 C149.39 108.25, 174.81 78.91, 195.57 55.85 M131.31 136.24 C144.25 121.52, 155.7 103.57, 195.49 60.12 M129.9 136.02 C154.32 107.54, 179.98 80.58, 196.25 60.4 M135.84 139.1 C160.36 108.69, 183.2 83.02, 195.02 67.33 M135.81 136.42 C148.54 120.69, 163.71 105.72, 195.44 66.57 M139.56 137.56 C152.37 125.71, 164.84 112.15, 196.75 75.36 M140.3 137.3 C159.56 116.02, 177.56 95.36, 194.82 73.36 M144.06 136.12 C159.97 119.42, 174.35 105.15, 194.32 77.4 M146.32 136.68 C162.96 115.04, 182.09 95.45, 195.78 79.59 M152.49 138.45 C164.44 120.89, 177.28 106.61, 196.97 84.32 M150.53 138.11 C168.74 116.52, 185.69 96.34, 196.48 85.08 M157.54 135.67 C167.73 120.34, 183.72 109.05, 196.11 89.41 M156.3 137.92 C169.91 120.98, 183.52 105.22, 195.42 90.45 M161.49 138.59 C170.34 127.22, 182.48 113, 194.08 96.43 M160.75 138.47 C173.43 124.39, 184.88 111.44, 195.18 98.09 M166.84 138.43 C174.13 128.09, 183.95 118.87, 194.79 104.28 M166.34 137.92 C178.19 125.75, 187.73 111.6, 196.03 103.94 M172.99 138.89 C178.67 129.95, 189.71 118.81, 195.67 111.35 M172.63 137.19 C177.87 132.01, 183.47 124.23, 196.98 108.69 M179.55 136.07 C183.21 131.23, 189.54 123.99, 195.76 115.68 M178.52 136.98 C183.77 129.74, 190.1 122.14, 196.77 115.1 M183.06 138.53 C186.86 132.87, 190.83 125.87, 198.3 119.76 M182.02 136.79 C187.04 132.26, 193.52 125.63, 195.49 121.67 M188.23 136 C191.92 133.9, 192.84 130.81, 195.7 127.13 M188.35 137.57 C190.11 134.72, 192.09 133.67, 196.23 127.85 M193.11 137.11 C194.4 136.26, 195.49 135.24, 195.64 134.78 M193.01 137.64 C193.87 136.43, 194.91 135.29, 195.69 134.57" stroke="#ced4da" stroke-width="0.5" fill="none"></path><path d="M-0.74 0.13 C78.03 -1.22, 151.6 0, 196.83 -0.17 M0.51 0.85 C71.22 -2.37, 143.44 -2.16, 195.86 -0.62 M195.42 0.63 C196.95 37.94, 198.38 78.28, 196.34 136.56 M195.67 -0.03 C195.88 47.37, 195.95 92.99, 195.41 135.09 M197.27 134.1 C118.53 132.55, 39.79 134.27, 0.03 134.93 M195.71 134.71 C133.75 135.49, 72.44 135.31, 0.21 135.23 M-1.97 136.24 C0.06 99.12, 1.45 61.04, 1.19 1.56 M-0.74 134.75 C0.16 98.94, 0.08 62.13, 0.35 -0.49" stroke="#000000" stroke-width="1" fill="none"></path></g><g transform="translate(1676.075439453125 564.2246914139248) rotate(0 87.5 25)"><text x="87.5" y="18" font-family="Virgil, Segoe UI Emoji" font-size="20px" fill="#000000" text-anchor="middle" style="white-space: pre;" direction="ltr">springdoc openapi </text><text x="87.5" y="43" font-family="Virgil, Segoe UI Emoji" font-size="20px" fill="#000000" text-anchor="middle" style="white-space: pre;" direction="ltr">swagger config</text></g><g stroke-linecap="round"><g transform="translate(534.1783318709406 275.62917149738445) rotate(0 111.51103318555221 75.34870316794908)"><path d="M0.44 -0.74 C37.24 24.11, 184.51 124.7, 221.41 149.8 M-0.8 1.48 C36.36 26.49, 186.85 126.47, 223.82 151.44" stroke="#000000" stroke-width="1" fill="none"></path></g><g transform="translate(534.1783318709406 275.62917149738445) rotate(0 111.51103318555221 75.34870316794908)"><path d="M193.44 143.31 C205.16 146.42, 215.36 150.55, 223.8 150.44 M195.23 144.4 C204.33 145.57, 214.38 148.51, 224.02 152.19" stroke="#000000" stroke-width="1" fill="none"></path></g><g transform="translate(534.1783318709406 275.62917149738445) rotate(0 111.51103318555221 75.34870316794908)"><path d="M204.85 126.26 C212.71 135.33, 218.94 145.38, 223.8 150.44 M206.64 127.34 C211.88 134.16, 218.21 142.65, 224.02 152.19" stroke="#000000" stroke-width="1" fill="none"></path></g></g><g stroke-linecap="round" transform="translate(1203.7489115397136 192.82838039572277) rotate(0 134.21241760253906 17.5)"><path d="M0 0 C0 0, 0 0, 0 0 M0 0 C0 0, 0 0, 0 0 M0.4 5.93 C1.04 4.75, 2.33 2.62, 4.33 0.56 M-0.06 6.56 C1.92 4.15, 4.01 2.12, 4.8 0.04 M-1.36 12.88 C4.55 10.02, 6.39 6.06, 11.15 0.2 M-0.27 12.26 C4.84 7.88, 7.85 2.68, 11.38 -0.38 M-0.63 18.98 C5.81 14.18, 11.23 9.2, 14.72 1.74 M-1.12 17.52 C5.49 12.17, 9.64 5.21, 15.97 0.3 M-0.67 25.68 C9.14 16.28, 15.19 6.22, 21.24 -1.84 M0.15 23.52 C8.25 14.61, 16.03 5.93, 21.92 -0.6 M1.57 30.55 C7.52 19.71, 17.57 11.33, 25.19 -1.07 M-0.21 30.11 C6.71 24.53, 12.19 16.71, 26.79 0.13 M2.22 36.75 C7.78 24.58, 18.65 16.02, 31.01 -1.98 M1.18 36.07 C8.21 26.65, 14.96 19.02, 31.35 0.45 M5.54 34.23 C12.82 27.24, 21.3 17.44, 37.94 1.99 M5.16 35.13 C15.83 24.18, 24.72 14.43, 37.53 0.11 M11.3 37.31 C20.5 24.76, 27.88 13.11, 43.27 -2.08 M12.44 34.5 C20.47 24.47, 31.09 11.78, 42.65 -0.48 M16.66 37.61 C23.01 28.4, 34.94 15.22, 47.13 1.5 M16.47 34.9 C23.1 27.46, 30.95 20.62, 47.22 0.84 M22.22 38.02 C27.2 30.01, 34.26 19.63, 51.7 0.94 M22.46 35.47 C29.57 26.12, 39.7 14.69, 53.12 -1.06 M28 37.04 C38.73 22.31, 47.3 11.39, 57.95 1.05 M26.41 35.06 C37.25 22.74, 49.24 12.08, 57.41 0.41 M33.49 36.95 C41.77 26.49, 49.01 15.38, 64.95 -0.84 M32.11 35.54 C41.38 24.71, 49.93 14.93, 64.55 0.55 M36.24 36.6 C46.27 25.18, 58.63 12.86, 70.56 1.2 M38.77 35.45 C43.5 27.46, 51.17 20.05, 68.14 0.4 M44.61 35.42 C52.46 21.98, 67.26 9.81, 74.71 1.65 M42.76 35.07 C50.87 27.43, 58.83 18, 75.21 -0.31 M49.04 37.37 C60.21 22.75, 69.24 11.17, 80.14 -0.46 M47.84 35.39 C57.95 25.03, 68.51 14.03, 79.94 -0.11 M54.76 35.01 C66.58 22.74, 76.57 9.27, 83.64 -1.51 M52.95 35.13 C64.84 21.91, 78.1 7.43, 85.91 -0.81 M61.08 37.43 C66.86 24.74, 78.5 15.19, 88.85 -1.35 M58.41 35.72 C68.12 26.65, 76.24 15.47, 89.86 -0.52 M66.11 34.31 C74.75 24.19, 85.4 11.43, 97.43 0.76 M63.73 36.31 C76.81 23.14, 87.68 9.63, 95.93 -0.62 M70.03 35.86 C80.08 23.36, 86.89 14.47, 101.87 -1.89 M69.78 34.78 C77.54 25.07, 86.28 15.86, 101.42 -0.76 M75.83 36.89 C82.51 27.92, 90.71 18.33, 104.73 0.54 M74.62 36.71 C83.61 25.69, 94.15 14.67, 107.05 0.11 M80.57 36.74 C90.89 27.11, 97.61 17.12, 111.37 -1.52 M79.72 36.4 C87.72 26.17, 96.86 16.67, 110.68 0.77 M84.1 35.33 C97.5 21.07, 107.18 8.8, 116.56 -0.34 M85.68 35.9 C95.66 23.97, 105.88 12.52, 116.92 -0.54 M92.35 37.14 C100.43 28.8, 107.32 20.85, 120.52 1.35 M90.53 35.93 C101.75 22.91, 110.4 13.18, 122.17 -0.86 M94.07 35.21 C102.28 27.13, 113.56 16.26, 124.92 -1.31 M95.44 34.97 C104.17 25.6, 112.84 16.66, 127.63 0.76 M100.06 35.14 C109.15 26.47, 119.73 15.73, 131.49 1.31 M100.99 36.19 C110.02 26.04, 118.89 15.26, 132.93 -1.05 M107.94 35.1 C117.8 25.39, 124.87 16.22, 138.81 1.46 M106.93 36.5 C118.48 22.22, 129.34 8.8, 137.82 1.1 M113.37 33.82 C125.51 21.54, 137.9 8.56, 141.47 -2.08 M112.4 35.52 C122.04 24.3, 130.27 14.38, 142.5 0.29 M118.86 34.59 C125.28 23.27, 135.53 15.69, 146.9 0.05 M117.7 36.59 C128.46 22.69, 140.56 9.62, 147.28 0.32 M124.95 37.26 C131.03 24.1, 139.2 15.19, 154.61 -0.24 M122.54 35.76 C134.64 22.94, 144.06 9.43, 152.91 0.73 M127.01 34.25 C138.96 23.59, 148.72 12.16, 156.88 -0.46 M127.79 34.82 C139.19 21.9, 151.68 9.42, 158.29 -0.25 M134.47 34.54 C140.35 28.14, 146.13 20.35, 166.08 0.42 M133.71 36.25 C143.44 24.65, 153.04 12.46, 164.71 -0.64 M139.56 35.66 C150.18 23.94, 160.09 11.27, 171.4 2.01 M137.73 36.27 C147.69 26.64, 156.1 17.23, 169.64 0.23 M143.94 36.48 C154.93 22.02, 167.64 8.14, 174.08 -1.53 M144.04 36.57 C156.04 22.44, 167.02 7.16, 174.94 0.77 M150.69 37.4 C158.33 24.96, 170.87 11.9, 180.15 -1.47 M148.57 35.53 C156.65 27.54, 163.71 19.55, 180.63 0.1 M152.36 36.66 C163.67 22.61, 174.41 11.58, 183.75 1.49 M154.12 35.55 C165.14 21.7, 178.28 8.42, 185.13 -0.95 M161.57 35.05 C168.2 23.02, 177.24 14.89, 191.79 1.19 M159.85 34.69 C166.93 27.77, 174.83 18.26, 191.04 -0.81 M163.74 35.92 C177.57 23.7, 188.07 8.59, 195.28 -1.95 M165.09 35.78 C173.08 26.87, 180 20.12, 195.33 -0.22 M172.36 37.18 C181.3 25.53, 189.67 14.36, 202 -0.94 M169.59 35.33 C183.5 21.6, 194.54 7.03, 201.16 0.83 M173.74 35.32 C188.29 22.16, 199.76 9.03, 207.83 -2.26 M175.24 36.6 C182.55 28.88, 188.56 22.16, 206.07 0.04 M182.24 37.37 C193.01 21.47, 203.81 11.3, 213.45 -1.79 M180.35 34.54 C191.21 22.75, 203.9 10.95, 211.78 -0.14 M185.04 36.95 C194.05 23.79, 204.76 13.86, 215.59 -0.87 M185.37 36.85 C197.58 23.46, 207.8 10.3, 218.39 0.43 M193.38 34.2 C202.68 24.72, 212.89 13.85, 223.81 1.74 M191.16 34.91 C200.88 24.01, 212.92 12.65, 222.19 0.63 M195.32 35.88 C206.35 22.16, 219.46 10.76, 227.72 -2.19 M196.74 36.85 C204.17 27.58, 211.36 17.83, 227.84 -0.97 M202.96 35.25 C211.83 26.41, 221.8 13.6, 233.74 1.71 M201.55 34.51 C211.23 25.79, 219.79 15.25, 234.18 0.95 M209.24 36.19 C219.09 24.01, 231.45 9.56, 239.73 -0.9 M207.17 36.45 C214.3 28.84, 220.31 19.72, 237.79 0.17 M211.14 37.1 C225.27 21.95, 236.29 8.68, 242.94 -0.8 M213.58 34.94 C222.67 23.72, 233.02 13.8, 244.03 0.18 M218.47 34.97 C228.49 26.22, 236.95 15.48, 248.11 -0.93 M218.93 34.98 C229.84 22.55, 240.13 9.24, 248.09 -0.55 M225.1 37.33 C232.18 28.64, 239.7 19.51, 254.05 0.29 M223.78 35.28 C232.77 25.83, 240.56 14.59, 254.54 -0.85 M229.7 34.29 C236.21 24.32, 244.63 16.36, 258.38 1.06 M228.82 35.28 C239 25.49, 248.29 13.62, 259.13 0.19 M235.01 34.51 C244.28 24.35, 253.9 15.98, 264.77 0.07 M235.18 36.12 C245.79 20.77, 257.87 6.1, 265 0.18 M240.58 37.22 C245.8 26.7, 256.51 18.15, 271.05 1.39 M240.12 35.68 C246.42 27.19, 253.7 19.31, 269.79 1.23 M246.03 36.22 C254.78 23.01, 263.17 14.14, 269.85 5.39 M245.33 35.54 C249.43 28.77, 256.45 23.02, 269.28 5.92 M251.8 35.85 C259.38 28.29, 263.22 19.55, 269.11 11.22 M250.63 36.02 C255.64 29.54, 261.98 21.92, 268.93 12.74 M253.7 35.79 C259.1 30.67, 262.75 24.58, 269.62 20.59 M255.61 35.89 C258.44 31.7, 263.09 26.88, 268.35 18.94 M259.46 35.38 C262.82 32.51, 265.76 29.29, 269.61 24.89 M260.59 35.64 C264.33 32.21, 266.34 28.4, 269.16 24.66 M265.79 36.4 C267.29 34.65, 267.91 33.47, 269.2 31.93 M265.61 36.23 C266.89 34.46, 268.6 32.56, 269.27 31.42" stroke="#ced4da" stroke-width="0.5" fill="none"></path><path d="M-0.31 -1.56 C70.47 1.92, 142.47 0.95, 268.3 0.36 M-0.38 -0.74 C67.92 0.76, 135.98 0.7, 268.37 -0.72 M267.3 1.55 C267.27 9.49, 269.6 19.17, 268.95 33.22 M268.03 0.85 C269.09 13.79, 268.83 26.08, 268.82 35.01 M266.91 35.26 C204.7 34.7, 142.14 35.25, 1.38 34.2 M268.9 34.55 C190.57 34.15, 111.83 34.15, 0.09 34.58 M-0.67 33.86 C-1.32 26.49, -1.67 22.67, 0.57 -0.71 M0.46 34.78 C0.93 22.03, 0.55 8.45, 0.07 -0.1" stroke="#000000" stroke-width="1" fill="none"></path></g><g transform="translate(1208.7489115397136 197.82838039572277) rotate(0 129 12.5)"><text x="129" y="18" font-family="Virgil, Segoe UI Emoji" font-size="20px" fill="#000000" text-anchor="middle" style="white-space: pre;" direction="ltr">UI URL</text></g><g stroke-linecap="round" transform="translate(288.0455118815105 706.1643484133008) rotate(0 269.5 49)"><path d="M0 0 C0 0, 0 0, 0 0 M0 0 C0 0, 0 0, 0 0 M0.17 6.28 C1.23 3.29, 3.53 1.48, 5.41 0.64 M-0.61 6.44 C1.09 5.33, 2.28 3.44, 4.97 0.32 M0.94 10.44 C4.85 7.54, 6.13 5.29, 9.11 1.24 M0.8 11.29 C4.04 7.63, 7.64 2.54, 10.91 -0.15 M-1.33 16.81 C3.31 13.19, 9.96 9.46, 14.71 -0.3 M-0.19 18.37 C6.04 12.48, 11.22 4, 16.17 0.66 M0.39 25.22 C6.34 20.62, 10.11 12.51, 21.53 1.76 M0.21 23.2 C6.3 16.34, 14.07 8.08, 20.29 -0.15 M-0.63 30.69 C9.82 21.4, 20.87 9.71, 25.31 1.26 M-0.39 31.27 C8.03 21.49, 15.06 12.19, 26.03 -0.45 M-1.68 36.09 C9.72 28.01, 18.47 18.88, 30.86 -1.08 M-0.26 37.29 C11.46 23.02, 23.81 10.41, 32.33 -0.64 M0.54 44 C15.4 25.65, 29.4 11.33, 37.42 0.81 M0.65 41.7 C12.87 27.93, 24.48 12.94, 36.08 -0.13 M-1.09 47.1 C10.29 37.82, 18.42 25.79, 40.81 -1.67 M-0.17 48.39 C8.91 37.69, 18.59 28.3, 43.51 -0.93 M1.4 52.89 C11.31 39.72, 24.94 27.33, 47.15 -1.67 M0.78 53.92 C17.6 35.86, 33.39 17.84, 47.84 -0.13 M0.77 61.85 C15.99 41.91, 36.56 21.07, 55.05 -0.84 M0.81 61.03 C11.09 45.82, 24.68 33.35, 52.69 0.5 M0.1 68.17 C22.93 39.78, 45.24 14.51, 57.25 0.72 M-0.35 67.78 C19.18 43.47, 39.01 20.72, 57.78 0.07 M1.75 74.1 C19.72 53.27, 36.81 29.09, 62.86 0.51 M0.56 73.32 C17.57 52.52, 35.21 33.5, 64.21 -1.04 M-1.65 78.29 C14.29 62.2, 27.03 46.05, 67.03 -0.24 M0.33 78.63 C12.95 63.19, 28.17 47.55, 68.3 0.32 M0.31 86.54 C27.52 54.58, 53.15 22.75, 73.13 -0.62 M0.94 84.67 C18.25 65.05, 35.9 45.04, 74.82 0.54 M-0.5 91.89 C16.41 73.22, 35.51 53.17, 78.42 -1.85 M0.36 90.9 C19 69.23, 38.61 48.02, 78.79 0.74 M0.81 97.47 C17.5 77.01, 36.22 56.34, 84.3 0.67 M0.12 97.5 C30.23 61.73, 63.13 24.24, 84.76 -0.83 M3.75 101.73 C29.23 69.79, 56.96 39.89, 89.93 -0.5 M2.04 101.04 C36.58 60.42, 68.29 22.06, 90.58 0.76 M6.76 98.08 C35.56 68.89, 60.48 37.01, 94.44 -0.81 M8.69 99.5 C37 69.38, 65.11 35.67, 94.7 -0.47 M13.54 99.44 C38.54 70.6, 65.04 39.45, 102.65 -1.67 M12.73 101.27 C47.48 61.82, 80.35 24.99, 99.94 0.1 M18.49 98.79 C46.63 71.16, 71.97 36.46, 107.2 1.64 M18.5 101.01 C41.14 72.16, 66.95 44.2, 106.77 0.12 M23.77 99.69 C56.64 65.16, 86 25.55, 110.29 -1.96 M24.12 100.7 C45.51 76.37, 67.51 50.21, 111.1 -0.21 M28.19 102.66 C55.03 73.32, 75.44 47.65, 117.17 1.42 M28.56 101.36 C51.77 74.37, 73.92 47.55, 116.9 1 M32.81 101.95 C51.89 77.41, 70.04 59.93, 121.14 0.98 M34.25 100.21 C68.67 60.59, 101.43 21.24, 121.26 -0.86 M38.6 99.64 C62.56 77.3, 82.92 49.48, 126.5 1.54 M38.85 100.2 C59.14 77.93, 80.2 56.2, 126.44 -0.25 M44.63 101.64 C71.62 70.73, 96.02 41.02, 132.09 -1.65 M44.57 100.43 C69.62 72.04, 93.65 45.53, 133.54 0.77 M49.75 99.84 C71.93 73.31, 94.74 46.55, 138.97 1.18 M49.93 99.69 C80.54 67.15, 109.76 31.29, 137.23 1.01 M54.79 100.07 C76.25 76.44, 98.67 54.92, 142.62 0.31 M55.03 100.83 C85.5 65.46, 117.12 29.87, 144.05 -0.41 M60.24 100.27 C94.81 63.45, 129.35 21.6, 148.6 -1.31 M61.34 100.32 C89.37 68.31, 117.39 35.46, 147.21 0.46 M68.43 98.45 C97.16 64.29, 129.36 27.39, 152.79 -2.1 M66.99 100.64 C99.62 63.1, 131.68 25.34, 152.83 -0.18 M73.26 98.84 C90.97 77.54, 110.63 57.69, 157.02 -1.69 M70.55 99.85 C97.55 69.4, 125.33 38.41, 158.76 0.6 M78.31 99.9 C110.25 60.38, 144.22 20.23, 165.29 1.06 M76.3 99.92 C97.96 77.41, 118.97 53.72, 164.87 -0.06 M82.61 100.39 C102.74 77.25, 119.79 55.91, 167.44 0.2 M82.02 100.35 C111.84 64.45, 144.09 27.43, 169.76 -0.32 M86.76 99.45 C119.52 63.68, 146.22 29.47, 175.37 0.66 M88.25 100.51 C117.34 64.63, 148.83 28.91, 175.12 -0.22 M94.67 98.65 C111.13 80.55, 128.58 62.34, 178.67 -1.59 M92.11 101.19 C127.16 61.68, 158.92 23.61, 180.49 0.8 M99.71 102.03 C119.82 76.76, 137.81 54.2, 184.88 -1.55 M98.57 101.04 C122.03 71.38, 148.5 42.03, 185.5 -0.58 M102.43 102.24 C136.81 60.89, 172.24 20.86, 191.11 -1.09 M104.19 100.03 C136.73 61.01, 172.22 21.22, 190.72 0.83 M108.7 100.49 C140.08 63.56, 170.26 32.26, 196.27 1.1 M108.45 99.94 C136.6 71.45, 162.28 41.64, 195.86 0.26 M115.45 100.72 C149.1 61.75, 182.6 22.09, 200.75 1.58 M113.53 99.83 C135.91 73.34, 159.17 47.1, 200.64 -0.57 M120.84 101.57 C138.33 77.67, 154.73 58.89, 206.59 -1.81 M119.55 100.46 C137.91 78.38, 157.65 56.75, 207.01 0 M125.91 98.53 C146.98 76.89, 164.96 53.24, 213.19 -1.82 M124.4 99.84 C157.3 64.07, 187.89 27.93, 211.94 0.08 M128.19 100.68 C162.05 61.71, 200.67 23.12, 217.47 0.2 M130.31 100.38 C161.31 64.17, 194.11 26.92, 217.71 -0.37 M134.57 101.04 C161.37 69.7, 187.69 39.47, 221.6 -1.59 M134.98 100.62 C163.25 68.08, 190.54 35.68, 222.71 1.02 M140.37 100.87 C170.06 70.05, 195.91 38.62, 229.14 0.52 M139.59 100 C158.7 79.16, 178.86 55.77, 227.69 0.43 M144.78 100.49 C166.12 77.3, 185.26 54.42, 232.77 -0.14 M146.44 101.01 C171.37 73.26, 196.26 44.67, 232.54 0.34 M150.62 99.36 C174.31 76.36, 193.28 50.65, 237.78 2.19 M151.74 101.71 C184.09 63.95, 215.77 26.41, 237.95 -0.26 M156.49 102.07 C187.92 62.78, 219 25.93, 245.07 -1.99 M155.88 101.17 C175.36 80.22, 192.94 59.53, 243.43 0.87 M160.45 102.51 C187.1 73.52, 209.29 42.99, 248.1 0.9 M162.23 99.94 C194.02 63.25, 225.61 26.98, 248.43 0.94 M168.24 101.84 C200.41 65.71, 228.33 29.03, 254.45 0.28 M167.37 99.53 C187.28 79.26, 205.62 56.08, 254.87 -0.71 M172.95 100.61 C207.31 61.83, 238.34 20.99, 259.47 -0.48 M171.95 100.88 C193.54 77.39, 212.68 54.02, 259.05 0.94 M179.18 100.79 C206.58 65, 238.63 30.36, 264.48 -0.03 M176.92 99.83 C201.32 74.91, 222.1 49.93, 264.79 -0.97 M182.78 101.85 C213.46 63.77, 241.78 31.51, 270.48 -0.94 M182.29 101.57 C215.98 61.7, 250.36 21.34, 269.34 0.24 M187.02 98.8 C218.77 63.77, 252.1 27.3, 276.31 -1.7 M187.49 100.12 C219.96 65.1, 251.34 27.62, 276.56 -0.66 M194.24 102.31 C212.13 76.46, 231.84 57.39, 280.35 1.43 M194.06 100.81 C221.38 68.08, 249.89 36.12, 280.78 0.6 M198.09 100.67 C228.3 66.95, 258.17 31.55, 286.69 -1.61 M200 99.72 C220.38 76.84, 240.12 52.38, 286.02 0.28 M203.19 99.98 C230.23 70.77, 251.09 42.62, 290.86 -0.53 M204.52 100.2 C230.81 68.18, 259.11 37.58, 291.81 0.09 M209.32 102.1 C233.25 71.13, 257.99 44.89, 297.95 -0.73 M210.33 100.27 C236.47 68.32, 265.14 35.95, 296.46 -0.33 M215.1 100.78 C238.96 72.51, 263.35 43.79, 300.39 -1.11 M214.42 101.15 C242.37 69.72, 268.43 39.63, 302.82 0.07 M222.21 99.69 C248.19 65.37, 278.85 34.01, 308.03 -2.13 M220.31 100.69 C243.85 74.19, 265.11 50.28, 307.61 0.17 M227.03 100.51 C255.28 65.69, 289.72 27.01, 313.93 0.34 M224.91 99.86 C245.41 78.25, 265.23 56.58, 313.15 0.21 M232.86 100.96 C257.54 72.29, 283.96 41.76, 316.46 -0.97 M230.72 100.21 C249.37 77.15, 269.69 54.74, 318.68 0.2 M237.62 98.88 C269.89 59.42, 303.42 21.06, 325.05 1.37 M236.64 100.34 C262.67 70.42, 288.2 40.24, 324.1 -0.54 M241.98 98.31 C265.62 72.69, 291.57 41.47, 330.35 1.5 M242.28 99.35 C262.04 77.31, 283.33 51.71, 329.3 -1 M245.12 101.53 C264.34 77.89, 285.14 57.31, 333.92 -1.59 M246.69 101.36 C273.22 69.08, 299.18 39.31, 333.91 -0.92 M252.2 99.85 C277.63 69.33, 304.48 38.79, 338.42 -0.07 M252.02 101.68 C273.23 74.42, 294.37 50.56, 338.58 -0.4 M257.37 101.96 C291.18 63.03, 324.22 26.04, 345.29 0.84 M257.59 99.53 C283.55 68.68, 311.3 38.54, 344.78 -0.37 M260.72 100.27 C282.94 73.96, 305.14 49.71, 348.32 -0.36 M262.91 99.81 C283.24 77.83, 301.51 54.55, 349.41 0.58 M269.81 99.63 C300.58 60.25, 336.97 20.86, 354.54 0.9 M268.34 100.24 C299.34 62.75, 332.69 26.27, 355.87 -0.06 M273.37 99.48 C302.35 69.04, 330.98 37.96, 359.26 -0.42 M272.86 100.9 C295.63 74.46, 318.53 46.85, 360.12 0.04 M279.46 101.87 C306.22 68.25, 331.43 37.96, 365.59 -0.22 M279.37 100.66 C297.36 77.89, 316.02 56.58, 366.29 0.18 M285.21 101.53 C302.66 79.15, 321.99 58.95, 372.09 -1.13 M284.44 100.67 C310.18 69.2, 335.4 40.95, 371.5 1.17 M290.95 101.92 C320.14 66.99, 352.02 30.2, 377 1.53 M289.6 100.79 C321.4 65.2, 352.59 28.3, 376.1 0.77 M293.92 101.35 C321.95 68.57, 346.94 37.78, 381.9 -0.2 M293.13 101.11 C329.09 60.68, 363.49 21.38, 380.47 0.18 M298.48 100.94 C320.6 76.4, 338.37 52.02, 387.9 -0.85 M299.36 100.39 C331.92 61.6, 365.53 24.92, 387.31 -0.53 M305.76 98.8 C328.99 73.35, 353.16 44.03, 391.36 -1.45 M304.4 101.54 C325.29 76.09, 346.09 52.9, 392.39 0.09 M311.86 102 C337.16 71.22, 362.32 43.99, 396.03 0.52 M309.46 100.05 C333.56 74.42, 354.79 48.75, 396.89 0.3 M313.57 100.66 C346.2 67.83, 373.49 35.85, 400.76 -0.79 M314.63 101.54 C338.37 75.81, 360.31 48.72, 402.09 -0.3 M322.5 100.04 C347.58 67.92, 372.92 38.01, 407.7 -1.56 M320.16 100.14 C340.33 76.33, 361.58 53.87, 407.75 0.61 M326.82 98.58 C351.56 67.67, 379.1 37.35, 413.96 -0.22 M326.2 100.02 C351.13 70.84, 376.22 42.39, 412.83 0.62 M333.4 99.95 C360 68.21, 387.6 38.62, 419.83 0.6 M332.16 99.83 C360.01 66.63, 387.19 33.61, 419.78 0.02 M337.54 99.14 C369.27 64.67, 401.79 23.06, 424.43 -1.85 M336.41 100.17 C366.73 67.89, 395.06 34.69, 423.34 0.26 M341.13 98.5 C375.14 61.51, 409.72 19.53, 429.94 -0.39 M341.62 100.08 C365.46 74.23, 387.52 47.54, 428.8 -0.55 M346.37 101.83 C367.65 79.3, 386.81 52.9, 433.23 -1.85 M346.52 100.49 C381.87 62.27, 415.72 22.5, 434.79 0.82 M353.89 98.38 C377.75 70.74, 400.33 43.56, 442.12 -1.02 M353.17 100.66 C381.11 68.61, 408.11 36.11, 439.58 0.14 M356.53 101.02 C391.56 60.65, 426.71 21.5, 447.01 -0.53 M358.76 99.74 C392.16 60.58, 425.31 21.56, 445.83 0.29 M364.8 98.94 C391.07 69.81, 420.87 37.47, 449.09 -0.86 M362.22 99.89 C386.49 73.44, 409.89 46.53, 450.87 0.61 M367.86 100.02 C399.63 64.99, 428.78 31.57, 456.02 -0.24 M369.29 100.03 C396.77 67.81, 424.66 37.48, 455.52 -0.53 M372.53 99.15 C404.19 67.9, 430.24 31.71, 462.12 -0.6 M372.59 100.61 C394.71 76.69, 417.46 51.26, 462.34 -0.33 M378.78 101.01 C399.63 79.5, 418.74 54.96, 468.08 0.52 M379.23 99.73 C401.2 74.87, 423.71 49.33, 466.41 0.96 M383.41 100.18 C416.77 60.39, 453.05 19.86, 472.46 0.75 M383.61 101.72 C409.82 72.33, 433.76 42.93, 470.98 0.2 M388.28 99.12 C411.76 70.13, 436.44 42.68, 478.65 1.2 M389.67 100.52 C420.55 64.81, 452.07 29.82, 477.5 0.13 M395.97 100.33 C428.96 59.27, 466.04 23.09, 483.89 0.82 M395.71 100.19 C430 61.65, 463.86 21.66, 482.7 1.09 M401.98 100.35 C420.65 77.67, 438.75 55.27, 488.74 1.14 M400.63 100.37 C421.86 75.13, 443.78 49.79, 487.22 0.18 M406.38 101.83 C430.88 72.51, 456.54 40.77, 490.82 0.41 M404.76 100.76 C428.04 73.75, 450.52 48.61, 493.37 0.81 M410.07 99.61 C442.29 66.01, 470.5 32.63, 498.97 1.58 M410.09 100.55 C432.12 76.2, 453.3 50.26, 498.46 -0.91 M414.39 100.79 C441.21 75.36, 462.73 46.66, 502.94 -1.54 M415.1 100.97 C445.9 66.08, 475.38 33.34, 502.51 -0.64 M421.35 98.74 C449.06 66.43, 477.49 36.74, 507.57 -0.32 M421 100.64 C451.75 65.49, 482.37 29.02, 509.59 0.63 M425.32 101.24 C459.8 62.32, 491.8 23.32, 514.49 -1.16 M426.53 100.16 C461.71 62.06, 494.85 22.18, 513.56 0.05 M433.2 100.46 C451.3 78.09, 466.61 57.78, 520.33 -1.5 M432.23 99.49 C451.84 78.27, 470.64 57.28, 519.4 -0.62 M436.12 101.11 C460.46 71.65, 486.62 40.66, 526.34 0.3 M437.27 100.48 C466.25 67.36, 493.23 36.17, 524.93 0.48 M441.61 98.42 C471.52 71.73, 495.33 39.91, 528.66 1 M443.64 100.28 C462.15 75.77, 483.58 53.48, 530.15 -0.28 M449.31 102.25 C480 64.59, 510.69 28.8, 535.94 -1.48 M447.02 99.86 C479.73 64.74, 510.11 29.85, 534.98 -0.46 M455.15 99.15 C474.75 73.36, 499.36 47.43, 538.9 0.8 M453.01 99.45 C486.9 63.03, 518.04 23.84, 539.89 -0.43 M459.02 100.4 C487.72 66.8, 514.25 36.24, 541.41 6.86 M457.93 101.03 C481.08 76.47, 501.14 51.74, 539.1 7.22 M464.98 100.1 C489.73 71.16, 516.02 40.99, 537.79 14.01 M465.1 99.76 C480.78 83.32, 494.44 66.14, 538.95 13.22 M468.95 99.22 C486.63 79.94, 507.58 56.82, 540.71 19.29 M469.6 100.51 C491.48 77, 512.62 51.63, 539.88 18.5 M474.87 99.64 C488.56 84.98, 500.54 69.3, 540.68 26.48 M474.6 99.27 C493.24 79.87, 511.13 59.1, 539.09 25.6 M478.41 100.26 C494.6 84.88, 504.81 70.55, 541.66 32.92 M480.09 99.65 C499.54 77.87, 520.96 54.99, 540.13 30.88 M486.51 99.77 C503.64 79.13, 519.74 61.49, 540.69 37.56 M484.52 101.08 C500.5 82.28, 518.78 63.43, 539.72 37.02 M492.31 100.99 C504.6 85.71, 517.32 70.32, 539.43 43.79 M490.89 99.55 C504.47 84.27, 517.37 69.4, 539.35 43.2 M496.17 101.16 C509.01 84.01, 521 70.62, 539.18 47.73 M495.77 101.33 C512.02 79.84, 530.12 59.94, 539.37 49.84 M499.15 100.78 C515.62 84.14, 534.12 65.08, 541.75 56.59 M501.97 100.14 C510.85 90.6, 518.84 79.64, 540 56.33 M504.73 101.64 C515.37 91.07, 520.69 85.72, 539.11 61.42 M506.26 100.71 C519.44 85.64, 533.71 69.74, 540.01 62.22 M513 98.91 C519.92 92.45, 524.39 84.36, 538.98 67.2 M510.73 101.14 C522.54 87.72, 532.37 76.59, 540.48 68.71 M518.33 99.19 C524.29 92.76, 527.34 87.52, 538.4 73.67 M516.51 100.46 C521.46 94.38, 527.1 88.63, 539.41 73.86 M523.56 100.56 C527.88 92.31, 533.8 83.68, 540.71 81.61 M523.06 101.05 C526.19 95.69, 530.83 90.08, 540.82 80.31 M525.78 98.78 C532.24 96.74, 536.29 90.09, 538.57 85.24 M527.94 100.15 C531.19 96.16, 533.95 92.27, 540.72 86.02 M533.59 99.46 C534.69 96.96, 538.56 95.36, 540.72 91.28 M532.57 100.22 C535.48 96.67, 538.23 93.86, 540.64 92.19" stroke="#ced4da" stroke-width="0.5" fill="none"></path><path d="M-0.03 -0.67 C112.34 -1.86, 225.89 -2.36, 539.7 0.21 M-0.27 -0.11 C128.89 0.57, 257.46 0.33, 539.15 0.15 M538.71 -1.53 C538 27.88, 540.18 53.57, 538.68 98.33 M538.69 0.63 C538.51 39.03, 537.7 76.87, 539.18 97.19 M539.44 98.51 C409.99 99.08, 279.18 98.61, 0.38 98.18 M538.65 97.65 C360.11 100.16, 181.67 99.85, -0.08 97.73 M0.2 99.89 C0.82 69.51, -1.53 44.94, 0.05 0.77 M-0.8 97.64 C-0.31 71.05, -0.35 45.17, -0.62 -0.7" stroke="#000000" stroke-width="1" fill="none"></path></g><g transform="translate(293.5455118815105 719.1643484133008) rotate(0 264 36)"><text x="264" y="19" font-family="Cascadia, Segoe UI Emoji" font-size="20px" fill="#000000" text-anchor="middle" style="white-space: pre;" direction="ltr">&lt;groupId&gt;io.openapitools.swagger&lt;/groupId&gt;</text><text x="264" y="43" font-family="Cascadia, Segoe UI Emoji" font-size="20px" fill="#000000" text-anchor="middle" style="white-space: pre;" direction="ltr">&lt;artifactId&gt;swagger-maven-plugin&lt;/artifactId&gt;</text><text x="264" y="67" font-family="Cascadia, Segoe UI Emoji" font-size="20px" fill="#000000" text-anchor="middle" style="white-space: pre;" direction="ltr">&lt;version&gt;2.1.1&lt;/version&gt;</text></g><g stroke-linecap="round"><g transform="translate(635.358516112868 252.05394144710988) rotate(0 329.04221407686543 -21.107900606636107)"><path d="M0.91 0.11 C110.43 -6.74, 548.6 -33.92, 658.15 -40.81 M-0.06 -0.88 C109.3 -8.06, 548.07 -35.28, 657.76 -42.33" stroke="#000000" stroke-width="1" fill="none"></path></g><g transform="translate(635.358516112868 252.05394144710988) rotate(0 329.04221407686543 -21.107900606636107)"><path d="M630.45 -28.54 C642.77 -33.28, 652.74 -40.08, 656.2 -40.73 M630.67 -29.88 C638.14 -34.13, 646.43 -37.61, 656.98 -42.51" stroke="#000000" stroke-width="1" fill="none"></path></g><g transform="translate(635.358516112868 252.05394144710988) rotate(0 329.04221407686543 -21.107900606636107)"><path d="M629.16 -49.02 C642.02 -45.86, 652.5 -44.75, 656.2 -40.73 M629.38 -50.36 C637.27 -48.34, 645.96 -45.54, 656.98 -42.51" stroke="#000000" stroke-width="1" fill="none"></path></g></g><g stroke-linecap="round" transform="translate(1566.8421732584636 361.06750087912104) rotate(0 197.52853393554688 184.8265609741211)"><path d="M-0.98 0.03 C100.5 -3.13, 201.08 -1.27, 395.87 -1.08 M0.38 0.49 C98.67 -0.92, 197.15 -0.97, 395.18 -0.32 M394.35 -0.97 C394.56 114.04, 394.81 229.88, 394.28 370.53 M395 0.02 C393.82 73.92, 393.89 148.61, 394.67 369.84 M394.78 370.48 C306.05 371.31, 215.81 371.8, 0.97 370.74 M395.39 369.82 C300.11 371.71, 204.24 371.7, -0.53 370.09 M-1.1 370.61 C-1.45 254.53, -0.85 139.2, 0.32 0.51 M0.2 370.19 C-0.59 223.58, -0.92 78.69, -0.23 -0.55" stroke="#000000" stroke-width="1" fill="none"></path></g><g transform="translate(1671.2656656901042 380.2493780153515) rotate(0 97.5 12.5)"><text x="0" y="18" font-family="Virgil, Segoe UI Emoji" font-size="20px" fill="#000000" text-anchor="start" style="white-space: pre;" direction="ltr">configuration-server</text></g><g transform="translate(1224.1349589029949 111.644145776582) rotate(0 107 12.5)"><text x="0" y="18" font-family="Virgil, Segoe UI Emoji" font-size="20px" fill="#000000" text-anchor="start" style="white-space: pre;" direction="ltr">/swagger-ui/index.html</text></g><g stroke-linecap="round"><g transform="translate(905.3583014524077 468.5371765858731) rotate(0 157.3909836925256 -12.458378057156438)"><path d="M0.99 0.12 C53.34 -3.72, 262.42 -19.25, 314.73 -23.5 M0.05 -0.87 C52.26 -4.97, 261.76 -21.1, 314.18 -25.03" stroke="#000000" stroke-width="1" fill="none"></path></g><g transform="translate(905.3583014524077 468.5371765858731) rotate(0 157.3909836925256 -12.458378057156438)"><path d="M287.04 -11.4 C298.39 -15.78, 304.84 -21.58, 316 -26.42 M286.48 -11.81 C294.69 -17.01, 303.19 -20.1, 314.07 -24.74" stroke="#000000" stroke-width="1" fill="none"></path></g><g transform="translate(905.3583014524077 468.5371765858731) rotate(0 157.3909836925256 -12.458378057156438)"><path d="M285.48 -31.87 C297.3 -29.06, 304.3 -27.66, 316 -26.42 M284.93 -32.27 C293.69 -31.1, 302.67 -27.82, 314.07 -24.74" stroke="#000000" stroke-width="1" fill="none"></path></g></g><g transform="translate(752.7186838785808 550.0426977175) rotate(0 208.5 12.5)"><text x="0" y="18" font-family="Virgil, Segoe UI Emoji" font-size="20px" fill="#000000" text-anchor="start" style="white-space: pre;" direction="ltr">/example-service-rest-api-spec-openapi.json</text></g><g transform="translate(1643.0631510416667 818.095676233125) rotate(0 137 12.5)"><text x="0" y="18" font-family="Virgil, Segoe UI Emoji" font-size="20px" fill="#000000" text-anchor="start" style="white-space: pre;" direction="ltr">/v3/api-docs/swagger-config</text></g><g transform="translate(750.6950785319011 581.8827550905469) rotate(0 209.5 12.5)"><text x="0" y="18" font-family="Virgil, Segoe UI Emoji" font-size="20px" fill="#000000" text-anchor="start" style="white-space: pre;" direction="ltr">/example-service-rest-api-spec-openapi.yaml</text></g><g stroke-linecap="round" transform="translate(740.9946009318035 546.4406621950391) rotate(0 221.36106872558605 35.51018524169922)"><path d="M0.66 -0.8 C156.75 -1.59, 313.18 -1.34, 442.68 -0.71 M444.59 1.4 C442.92 16.59, 442.63 35.38, 443.73 70.63 M443.11 71.2 C304.64 69.34, 166.86 69.68, -0.42 70.67 M-0.72 69.72 C-1.88 46.45, -0.43 18.9, -0.83 -1.05" stroke="#000000" stroke-width="1.5" fill="none" stroke-dasharray="8 9"></path></g><g stroke-linecap="round" transform="translate(1206.452273050944 104.91724758322262) rotate(0 125.21475219726551 19.883411407470696)"><path d="M0.67 -0.46 C70.17 -3.12, 138.94 -1.13, 250.75 -0.72 M252.41 -1.61 C248.93 13.3, 250.02 27.31, 248.56 40.01 M251.21 38.46 C154.9 40.29, 57.19 41.38, 1.42 39.66 M1.76 37.99 C0.19 22.6, -0.08 7.7, 0.21 1.89" stroke="#000000" stroke-width="1.5" fill="none" stroke-dasharray="8 9"></path></g><g stroke-linecap="round"><g transform="translate(1325.5065763510202 147.82555577532062) rotate(0 2.055837525600168 19.73632441102422)"><path d="M0.88 -0.22 C1.43 6.29, 3.06 32.98, 3.23 39.7" stroke="#000000" stroke-width="1.5" fill="none" stroke-dasharray="8 9"></path></g></g><g stroke-linecap="round"><g transform="translate(908.5432770297314 494.76248556745435) rotate(0 40.588061674637856 23.790645870430296)"><path d="M0.05 1.02 C13.65 8.85, 67.65 38.96, 81.12 46.56" stroke="#000000" stroke-width="1.5" fill="none" stroke-dasharray="8 9"></path></g></g><g stroke-linecap="round" transform="translate(1625.9026285807297 807.6608884828809) rotate(0 155.82228088378895 21.906726837158203)"><path d="M1.23 0.65 C114.94 -2.02, 230.11 -2.23, 311.13 -1.41 M310.88 1.81 C309.98 18.38, 313.33 33.35, 309.9 45.37 M310.59 43.67 C228.31 44.31, 145.16 46.22, 1.37 44.1 M0.32 42.33 C1.17 29.31, -0.26 16.62, 0.9 -1.91" stroke="#000000" stroke-width="1.5" fill="none" stroke-dasharray="8 9"></path></g><g stroke-linecap="round"><g transform="translate(1759.7322483775033 657.8340423633533) rotate(0 6.067478562319138 72.70089271678489)"><path d="M0.25 -0.37 C2.35 24.02, 10.07 121.56, 11.89 145.77" stroke="#000000" stroke-width="1.5" fill="none" stroke-dasharray="8 9"></path></g></g><g stroke-linecap="round" transform="translate(1607.7544352213545 439.7636068361523) rotate(0 157.96939086914062 122.85603332519531)"><path d="M-0.47 -0.66 C78.42 1.66, 154.91 1.88, 315.62 -0.83 M-0.4 -0.24 C65.87 -1.89, 130.45 -2.29, 315.92 -0.26 M315.4 1.53 C315.66 67.17, 315.84 132.87, 314.86 244.75 M316.61 0.26 C316.36 67.95, 316.33 136, 316.27 244.99 M315.18 244.41 C212.29 245.36, 108.98 245.12, 0.75 247.02 M315.61 245.94 C210.51 246.23, 105.55 247.01, 0.09 246.02 M0.55 246.35 C-0.04 178.71, -0.07 108.82, -1.58 0.23 M0.63 245.19 C-0.92 175.83, -1.76 107.35, -0.52 -0.27" stroke="#000000" stroke-width="1" fill="none"></path></g><g transform="translate(1710.2792154947917 446.24055080587885) rotate(0 89.98262023925781 37.08075009859519)"><text x="0" y="17.720500065730132" font-family="Virgil, Segoe UI Emoji" font-size="19.776400052584137px" fill="#000000" text-anchor="start" style="white-space: pre;" direction="ltr">example-service</text><text x="0" y="42.441000131460264" font-family="Virgil, Segoe UI Emoji" font-size="19.776400052584137px" fill="#000000" text-anchor="start" style="white-space: pre;" direction="ltr">config file for ENV</text><text x="0" y="67.16150019719039" font-family="Virgil, Segoe UI Emoji" font-size="19.776400052584137px" fill="#000000" text-anchor="start" style="white-space: pre;" direction="ltr">...</text></g></svg>